<svg width="34" height="34" fill="none" xmlns="http://www.w3.org/2000/svg"><rect width="34" height="34" rx="17" fill="#262A2B"/><path fill-rule="evenodd" clip-rule="evenodd" d="M17.352 30.132l-.012.002-.078.038-.021.004-.016-.004-.077-.038c-.011-.004-.02-.002-.026.005l-.004.011-.019.466.006.022.01.014.114.08.016.005.013-.005.113-.08.013-.018.005-.018-.019-.465c-.003-.011-.009-.018-.018-.02zm.288-.123l-.014.002-.202.101-.01.011-.004.012.02.468.005.013.01.008.218.1c.014.004.024.002.031-.008l.005-.015-.037-.668c-.004-.013-.011-.021-.022-.024zm-.778.002a.022.022 0 00-.03.006l-.006.016-.037.668c0 .013.007.022.019.026l.016-.002.219-.101.01-.01.005-.011.018-.468-.003-.013-.01-.01-.201-.101z" fill="#fff"/><path d="M10.96 22.93a1.088 1.088 0 01.61 2.09c-.545.158-.937.326-1.188.478.259.156.668.33 1.236.492 1.257.36 3.056.596 5.087.596 2.032 0 3.83-.237 5.087-.596.57-.162.977-.336 1.236-.492-.25-.152-.642-.32-1.186-.479a1.088 1.088 0 01.608-2.089c.727.212 1.393.484 1.905.834.473.325 1.055.892 1.055 1.734 0 .852-.596 1.424-1.077 1.749-.52.35-1.2.623-1.944.835-1.499.43-3.508.68-5.684.68s-4.185-.25-5.684-.68c-.744-.212-1.424-.485-1.944-.835C8.597 26.92 8 26.35 8 25.498c0-.842.582-1.409 1.055-1.734.512-.35 1.178-.622 1.905-.834zM16.705 7a8.16 8.16 0 018.161 8.161c0 2.794-1.523 5.066-3.101 6.681a17.827 17.827 0 01-2.017 1.757c-.646.486-2.123 1.395-2.123 1.395a1.86 1.86 0 01-1.84 0 22.824 22.824 0 01-2.123-1.395 17.42 17.42 0 01-2.017-1.757c-1.578-1.615-3.1-3.887-3.1-6.681A8.161 8.161 0 0116.704 7zm0 5.985a2.176 2.176 0 100 4.352 2.176 2.176 0 000-4.352z" fill="#fff"/></svg>