<svg width="500" height="500" fill="none" xmlns="http://www.w3.org/2000/svg"><path fill="#fff" d="M0 0h500v500H0z"/><path fill-rule="evenodd" clip-rule="evenodd" d="M89.061 37.228L426.377 374.91 398.316 403l-16.438-16.456H80.842V85.183L61 65.32l28.061-28.092zM279.264 307.09l-99.211-99.318-59.528 94.153v44.891h221.668l-52.348-52.405-10.581 12.679zM438 29v301.362L313.177 205.404l25.613-25.64 59.525 59.591V68.727H176.647L136.963 29H438zm-317.475 95.908v101.371l38.824-62.506-38.824-38.865zm188.502-16.453c16.437 0 29.763 13.34 29.763 29.795 0 16.455-13.326 29.795-29.763 29.795-16.438 0-29.763-13.34-29.763-29.795 0-16.455 13.325-29.795 29.763-29.795z" fill="#969696"/><path d="M124 460v-33.6h6.432l19.824 24.192h-3.12V426.4h7.68V460h-6.384l-19.872-24.192h3.12V460H124zm55.085.576c-2.656 0-5.12-.432-7.392-1.296-2.24-.864-4.192-2.08-5.856-3.648a17.128 17.128 0 01-3.84-5.52c-.896-2.112-1.344-4.416-1.344-6.912 0-2.496.448-4.8 1.344-6.912a16.779 16.779 0 013.888-5.52c1.664-1.568 3.616-2.784 5.856-3.648 2.24-.864 4.672-1.296 7.296-1.296 2.656 0 5.088.432 7.296 1.296 2.24.864 4.176 2.08 5.808 3.648a16.779 16.779 0 013.888 5.52c.928 2.08 1.392 4.384 1.392 6.912 0 2.496-.464 4.816-1.392 6.96a16.779 16.779 0 01-3.888 5.52c-1.632 1.536-3.568 2.736-5.808 3.6-2.208.864-4.624 1.296-7.248 1.296zm-.048-6.624c1.504 0 2.88-.256 4.128-.768a9.898 9.898 0 003.36-2.208 9.793 9.793 0 002.208-3.408c.544-1.312.816-2.768.816-4.368 0-1.6-.272-3.056-.816-4.368a9.793 9.793 0 00-2.208-3.408 9.404 9.404 0 00-3.312-2.208c-1.28-.512-2.672-.768-4.176-.768s-2.896.256-4.176.768a10.018 10.018 0 00-3.312 2.208c-.96.96-1.712 2.096-2.256 3.408-.512 1.312-.768 2.768-.768 4.368 0 1.568.256 3.024.768 4.368.544 1.312 1.28 2.448 2.208 3.408.96.96 2.08 1.696 3.36 2.208 1.28.512 2.672.768 4.176.768zM216.859 460v-33.6h7.776V460h-7.776zm15.75 0v-33.6h6.432l14.304 23.712h-3.408l14.064-23.712h6.384l.096 33.6h-7.296l-.048-22.416h1.344l-11.232 18.864h-3.504l-11.472-18.864h1.632V460h-7.296zm41.428 0l14.976-33.6h7.68l15.024 33.6h-8.16l-12.288-29.664h3.072L282.005 460h-7.968zm7.488-7.2l2.064-5.904h17.28l2.112 5.904h-21.456zm49.433 7.776c-2.656 0-5.104-.416-7.344-1.248-2.208-.864-4.144-2.08-5.808-3.648a17.128 17.128 0 01-3.84-5.52c-.896-2.112-1.344-4.432-1.344-6.96 0-2.528.448-4.848 1.344-6.96a16.779 16.779 0 013.888-5.52c1.664-1.568 3.616-2.768 5.856-3.6 2.24-.864 4.704-1.296 7.392-1.296 2.976 0 5.648.496 8.016 1.488 2.4.992 4.416 2.432 6.048 4.32l-4.992 4.608c-1.216-1.28-2.544-2.224-3.984-2.832-1.44-.64-3.008-.96-4.704-.96-1.632 0-3.12.256-4.464.768a10.195 10.195 0 00-3.504 2.208c-.96.96-1.712 2.096-2.256 3.408-.512 1.312-.768 2.768-.768 4.368 0 1.568.256 3.008.768 4.32a10.948 10.948 0 002.256 3.456 10.3 10.3 0 003.456 2.208c1.344.512 2.816.768 4.416.768 1.536 0 3.024-.24 4.464-.72 1.472-.512 2.896-1.36 4.272-2.544l4.416 5.616c-1.824 1.376-3.952 2.432-6.384 3.168-2.4.736-4.8 1.104-7.2 1.104zm6.48-5.28v-12.624h7.104v13.632l-7.104-1.008zm21.479-15.36h16.176v6.048h-16.176v-6.048zm.576 13.824h18.288V460h-26.016v-33.6h25.392v6.24h-17.664v21.12z" fill="#969696"/></svg>