<svg width="128" height="128" fill="none" xmlns="http://www.w3.org/2000/svg"><g opacity=".2" fill="#fff"><path d="M43.096 8.155l.5.275c1.647.954 2.136 2.064 2.78 3.806a881.09 881.09 0 01.727 1.936c.44 1.178.885 2.354 1.329 3.53l.277.736a712.548 712.548 0 003.056 7.911l.262.668c.864 2.286.864 2.286 1.826 4.53.423 1.32-.322 2.435-.918 3.594a387.643 387.643 0 01-.817 1.612c-.49.96-.974 1.922-1.459 2.884l-.291.578a171.02 171.02 0 00-2.574 5.321 37.624 37.624 0 01-1.844 3.495c-2.108 3.62-2.325 5.854-1.274 9.89.47 1.89-.077 2.92-1.029 4.541-.166.275-.332.55-.504.832l-.512.865c-.345.583-.692 1.164-1.042 1.744-.454.754-.904 1.51-1.352 2.267a179.994 179.994 0 01-3.88 6.284c-2.022-1.268-3.87-2.742-5.727-4.234-.235-.188-.47-.376-.71-.57-4.924-3.993-4.924-3.993-6.874-6.016a20.922 20.922 0 00-1.288-1.165c-2.185-1.887-4.212-3.986-6.07-6.194l-.599-.683c-4.782-5.482-8.875-11.775-11.105-18.74l-.16-.488c-2.19-6.977-1.046-14.986 2.246-21.396a22.246 22.246 0 012.895-4.015c.106-.12.213-.239.323-.361 8.856-9.728 22.891-9.47 33.808-3.437z"/><path d="M83.92 4.982l.876.273c5.882 2.059 10.587 6.613 13.32 12.144 3.228 6.947 3.265 15.065.678 22.211-2.082 5.543-5.179 11.209-9.396 15.426-.76.144-1.478.128-2.24 0-.748-.56-.748-.56-1.096-.903-1.675-1.438-3.886-1.678-5.997-1.657-1.83.145-3.37.623-4.741 1.848-1.37 1.057-2.793.833-4.447.743-3.234-.088-6.04.191-9.077 1.308-3.09 1.135-6.157 1.508-9.257.155.136-1.373.64-2.401 1.264-3.606l.318-.627c.227-.447.455-.893.684-1.34.362-.706.721-1.414 1.08-2.123 1.018-2.013 2.042-4.024 3.069-6.034.628-1.23 1.253-2.462 1.875-3.696.238-.47.477-.938.718-1.406.336-.654.668-1.31.998-1.967l.305-.583c.55-1.109.775-1.785.397-3.023-.252-.635-.252-.635-.582-1.251l-.363-.713-.393-.76c-.276-.54-.55-1.08-.825-1.622l-.422-.828a197.957 197.957 0 01-2.068-4.277 256.847 256.847 0 00-1.782-3.69c-.328-.664-.654-1.329-.98-1.994l-.484-.975c-.227-.454-.45-.909-.673-1.364l-.394-.794c-.248-.657-.248-.657.001-1.404a22.51 22.51 0 011.432-1.168l.44-.333C64.107 5.04 74.17 1.925 83.92 4.982z"/><path d="M84.128 56.882c.828.6 1.27 1.258 1.786 2.136l.66-.11c4.132-.623 8.118-.731 12.099.741 3.656 1.348 6.842 1.542 10.621.504.938-.168 1.598-.138 2.519.11.724.802 1.279 1.67 1.825 2.601l.472.802.504.862a7182.503 7182.503 0 001.632 2.773 982.505 982.505 0 002.062 3.49c.328.556.656 1.11.983 1.667a156.009 156.009 0 002.297 3.794c.267.425.532.852.797 1.279.33.53.664 1.057 1.003 1.581.901 1.457 1.463 2.583 1.125 4.31-1.228 3.632-3.908 5.802-7.206 7.549-3.678 1.728-7.77 2.034-11.645.747-3.652-1.453-6.819-3.668-8.542-7.3l-.286-.585c-.367-1.143-.418-1.952.092-3.069.44-.803.903-1.586 1.377-2.369l.515-.869c.345-.584.693-1.166 1.044-1.747.44-.731.877-1.464 1.313-2.198 1.613-2.71 3.261-5.4 4.91-8.089l-.816.016c-3.39-.018-6.303-.903-9.475-2.05-3.174-.987-6.655-.432-9.88.042l-.194.696c-.307.807-.513 1.102-1.175 1.623l-.46.37c-.412.3-.412.3-.91.549l-.249 39.594H94.63c1.175 1.176.25 3.319.25 4.981H66.49c0-4.234 0-4.234.499-4.981.504-.09.504-.09 1.13-.085l.71.001.768.011.785.004c.83.004 1.66.013 2.49.023l1.684.01c1.38.008 2.758.021 4.137.036.002-5.145-.004-10.29-.02-15.436-.008-2.389-.012-4.778-.01-7.167.001-2.082-.002-4.163-.012-6.245a409.818 409.818 0 01-.003-3.308c.003-1.038 0-2.075-.009-3.113a82.2 82.2 0 01.002-1.143c.004-.52 0-1.04-.008-1.56l-.002-.882c-.125-.812-.125-.812-.92-1.314l-.761-.423c-.598-.593-1.116-1.235-1.495-1.992-4.77-1.308-9.063-.76-13.613 1.038-1.358.484-2.719.528-4.145.596l-.631.033c-.51.026-1.022.052-1.533.076.628 1.075 1.255 2.149 1.884 3.222l.287.49a566.003 566.003 0 004.553 7.647 139.874 139.874 0 012.468 4.23c.54 1.188.24 2.01-.198 3.179-1.626 3.666-4.849 5.97-8.495 7.38l-.625.242c-3.608 1.186-7.658.677-11.085-.82-3.036-1.556-6.114-4.031-7.216-7.39-.333-1.545-.231-2.373.622-3.72l.303-.508c.226-.377.454-.753.685-1.127.41-.668.813-1.34 1.215-2.011a889.94 889.94 0 011.876-3.124 531.899 531.899 0 003.769-6.398c.494-.847.992-1.692 1.49-2.537a170.79 170.79 0 011.044-1.77l.462-.782c.51-.718 1.008-1.183 1.732-1.681.524-.06.524-.06 1.043.031l.595.094c.383.079.764.163 1.144.255 4.347 1.027 7.873.092 11.987-1.414 1.459-.46 2.877-.508 4.39-.507h.624c1.903.016 3.742.23 5.617.545l.461-.712c1.879-2.746 5.197-2.957 7.963-1.424zm-33.326 9.607c-.3.455-.589.918-.872 1.385l-.265.436c-.286.471-.57.944-.855 1.416l-.585.967a176.034 176.034 0 00-3.448 5.946 76.205 76.205 0 01-1.696 2.868c-.269.382-.269.382-.248.678H59.02a17.838 17.838 0 00-1.296-2.636l-.486-.82-.522-.871-.533-.895a949.207 949.207 0 00-1.646-2.747l-.524-.875a949.13 949.13 0 00-1.452-2.409l-.45-.748-.413-.679-.362-.597-.285-.42h-.249zm59.766 0c-1.19 1.587-2.156 3.341-3.144 5.058a297.963 297.963 0 01-3.94 6.628l-.354.584-.312.509c-.258.413-.258.413-.219.917h16.186c-3.497-6.138-3.497-6.138-7.066-12.234l-.273-.463c-.203-.338-.415-.67-.629-1h-.249zM64.14 115.015l.913-.004 1.011.001 1.058-.003 2.88-.003 2.4-.002c1.888-.002 3.775-.002 5.663-.002 1.95 0 3.899-.003 5.849-.007 1.67-.003 3.342-.004 5.014-.004l2.998-.003c.94-.003 1.879-.003 2.819-.001.345 0 .69 0 1.036-.002.47-.002.94 0 1.411.001h.8c.62.062.62.062 1.118.56.06.761.06.761.057 1.729v.515c0 .359-.003.719-.006 1.078-.005.552-.005 1.104-.005 1.656-.01 2.705-.01 2.705-.295 2.991-.466.024-.933.031-1.4.031l-.92.003-1.02-.002-1.065.001h-2.904l-3.031.001-5.093-.002c-1.965-.001-3.93-.001-5.895.001H72.48l-3.022.001-2.84-.001h-1.045c-.474.001-.948 0-1.421-.002h-.806c-.594-.031-.594-.031-.843-.28a38.51 38.51 0 01-.033-1.759 888.57 888.57 0 010-3.368 1303.212 1303.212 0 01-.001-1.605c.007-1.536.174-1.517 1.671-1.519z"/></g></svg>