<svg width="212" height="211" fill="none" xmlns="http://www.w3.org/2000/svg"><path d="M25.125.024l1.047-.016 1.137.014 1.218-.01c1.348-.008 2.696-.002 4.044.005L35.47.006c2.625-.01 5.25-.006 7.875 0 2.466.005 4.933.002 7.4-.001 5.183-.006 10.366 0 15.549.012 4.447.009 8.894.007 13.341-.002C84.8.004 89.964 0 95.128.005c2.734.004 5.468.004 8.201-.002 2.57-.006 5.14-.002 7.71.01.944.002 1.888.002 2.832-.003 1.287-.005 2.574.002 3.861.012l1.137-.014c1.801.028 2.603.11 4.097 1.191.852 1.213 1.057 1.727 1.049 3.181l.009 1.215-.023 1.317.001 1.398c-.001 1.524-.017 3.047-.033 4.571l-.009 3.171c-.007 2.497-.024 4.994-.044 7.491-.023 2.844-.035 5.687-.045 8.53-.022 5.849-.058 11.696-.104 17.544l-.995.004c-3.107.016-6.213.04-9.32.071-1.597.016-3.194.03-4.79.036-1.544.006-3.087.02-4.631.04-.586.006-1.173.01-1.759.01-4.016.004-7.17.236-10.276 2.922l-.878 1.028-.697.796c-1.543 2.412-1.493 4.862-1.494 7.622l-.01 1.313c-.01 1.453-.014 2.905-.018 4.357l-.019 3.124c-.018 3.124-.028 6.247-.037 9.37l-.012 3.53c-.017 5.187-.032 10.375-.04 15.562l-.006 3.804-.002.955a3578.03 3578.03 0 01-.063 15.332 2951.33 2951.33 0 00-.052 15.746c-.002 2.946-.01 5.892-.035 8.839a721.38 721.38 0 00-.017 8.309c0 1.017-.006 2.034-.019 3.051a206.12 206.12 0 00.002 4.161l-.031 1.224c.042 2.152.042 2.152 1.27 3.838.953.632 1.925 1.173 2.933 1.712.697.538 1.39 1.08 2.067 1.644v-.698c.015-13.664.038-27.327.073-40.991l.012-4.92.003-.989c.013-5.289.02-10.578.024-15.867.005-5.426.017-10.852.034-16.277.01-3.349.016-6.698.015-10.047 0-2.566.009-5.132.02-7.699.004-1.054.005-2.108.003-3.161-.003-1.436.004-2.872.014-4.308l-.01-1.271c.023-1.808.046-2.839 1.013-4.405 1.534-1.38 2.828-1.25 4.805-1.247l.985-.004c1.095-.004 2.19-.004 3.284-.005l2.348-.006c2.131-.005 4.261-.008 6.392-.01l3.99-.005c4.159-.005 8.319-.01 12.478-.01 4.806-.003 9.612-.01 14.418-.022 3.711-.009 7.423-.013 11.134-.013 2.219 0 4.437-.003 6.655-.01 2.087-.007 4.173-.008 6.26-.005.766 0 1.532-.001 2.298-.005 1.045-.005 2.091-.003 3.136.001l.92-.01c1.814.018 3.014.222 4.417 1.395.702 1.431.93 2.58.929 4.164l.005 1.266-.008 1.383.002 1.476c.002 1.35-.001 2.7-.005 4.05-.004 1.456-.003 2.912-.002 4.369.001 2.523-.002 5.045-.007 7.568-.006 3.648-.009 7.295-.01 10.943-.001 5.917-.007 11.835-.015 17.753-.007 5.749-.013 11.498-.017 17.246v1.074l-.004 5.333c-.008 14.747-.023 29.495-.041 44.242l1.174.369c4.789 1.665 8.658 6.742 10.811 11.142 1.549 4.079 3.098 9.255 1.653 13.567l1.295-.013c1.591-.015 3.181-.024 4.772-.032.687-.004 1.374-.01 2.062-.017.99-.01 1.98-.015 2.97-.018l.926-.013c2.05 0 3.592.229 5.244 1.469.647.876.681 1.424.683 2.504l.024.949c-.294 1.331-.767 1.747-1.858 2.571a22.853 22.853 0 01-3.452.207l-1.07.007c-1.191.006-2.382.001-3.573-.005l-2.579.008c-2.368.007-4.735.003-7.103-.002-2.552-.004-5.103.002-7.654.007-4.711.007-9.422.006-14.134.002-4.351-.005-8.703-.006-13.055-.004l-.874.001-3.512.001c-10.987.005-21.974.001-32.961-.008-9.767-.008-19.533-.007-29.3.001-10.966.008-21.933.012-32.9.007l-3.505-.002h-.872c-4.35-.002-8.7 0-13.049.004-4.944.005-9.89.004-14.834-.005-2.524-.004-5.049-.006-7.573-.001-2.309.005-4.617.003-6.926-.006-.838-.002-1.675-.001-2.513.003-1.134.005-2.267 0-3.401-.008l-.998.012c-1.473-.02-2.294-.098-3.483-.997-.914-1.269-.856-2.176-.785-3.693.161-.873.161-.873.884-1.901 1.432-.949 2.706-1.079 4.402-1.075l1.078.001 1.152.006 1.188.002c1.25.002 2.501.007 3.752.012l2.546.006c2.079.005 4.157.012 6.236.02l-.002-1.287a67305.863 67305.863 0 01-.111-84.491l-.001-.91c-.009-9.736-.025-19.472-.044-29.209a19749.259 19749.259 0 01-.038-34.245v-.842c-.003-4.479-.012-8.957-.025-13.435-.012-4.5-.016-8.999-.013-13.498 0-2.44-.001-4.878-.012-7.317-.01-2.231-.01-4.462-.004-6.693.001-.809-.002-1.618-.008-2.427-.008-1.096-.004-2.192.004-3.288l-.017-.961c.026-1.607.218-2.363 1.209-3.655 1.126-.83 1.549-1.09 2.913-1.09zm11.58 15.388c-1.437 1.957-1.253 3.707-1.199 6.069l-.013 1.297c-.067 2.35-.067 2.35 1.024 4.338 1.036.843 1.603 1.09 2.941 1.123 1.572-.691 2.259-1.31 2.893-2.878.17-1.358.134-2.718.13-4.086l.02-1.113c.001-2.018-.037-3.458-1.39-5.079-1.648-.82-2.896-.686-4.407.33zm20.524.904c-.772 1.537-.525 3.37-.542 5.062l-.036 1.184c-.017 1.82-.022 2.9.937 4.487 1.038.918 1.557 1.19 2.947 1.19 1.441-.667 2.002-1.137 2.893-2.467.2-1.484.172-2.975.181-4.47l.041-1.24c.021-2.493.021-2.493-1.187-4.634-1.058-.837-1.058-.837-2.367-.987-1.469.28-1.948.724-2.867 1.875zm21.077 0c-.57 1.703-.505 3.304-.516 5.088l-.026 1.06c-.013 1.98.035 3.367 1.369 4.952 1.383.688 2.107.915 3.616.54 1.045-.516 1.045-.516 1.757-1.773.201-1.552.172-3.113.18-4.676l.041-1.298c.03-2.575.03-2.575-1.187-4.794-1.06-.823-1.06-.823-2.367-.974-1.477.281-1.957.703-2.867 1.875zm21.749-.925c-1.322 1.82-1.173 3.835-1.188 6.013l-.026.925c-.014 2.003.27 3.346 1.369 5.087.982.75 1.452.833 2.686.771 1.271-.442 1.849-.963 2.687-2.004.578-1.58.489-3.248.49-4.908l.016-.876c.006-2.046-.284-3.53-1.41-5.239-1.563-1.018-3.165-.838-4.624.231zm-63.35 20.99c-1.439 1.955-1.253 3.705-1.199 6.067l-.013 1.297c-.065 2.345-.065 2.345 1.011 4.336 1.16.931 1.88 1.124 3.368 1.124 1.135-.727 1.872-1.259 2.48-2.466.098-1.42.076-2.843.077-4.266l.015-1.194.002-1.153.006-1.054c-.111-1.07-.343-1.71-.927-2.611-1.795-1.19-3.002-1.306-4.82-.08zm20.524.902c-.773 1.538-.49 3.395-.49 5.088l-.016 1.194-.002 1.154-.005 1.054c.11 1.056.368 1.71.926 2.61 1.041.777 1.583.825 2.893.771 1.45-.42 1.949-.848 2.893-2.004.335-1.552.25-3.119.233-4.702l.03-1.292c-.003-2.566-.003-2.566-1.231-4.772-1.057-.826-1.057-.826-2.364-.977-1.469.28-1.948.725-2.867 1.876zm21.077 0c-.57 1.703-.505 3.304-.516 5.088l-.026 1.06c-.013 1.986.043 3.355 1.369 4.952 1.16.945 1.16.945 2.454.771 1.47-.418 1.964-.834 2.918-2.004.335-1.552.25-3.119.233-4.702l.03-1.292c-.003-2.566-.003-2.566-1.231-4.772-1.057-.826-1.057-.826-2.364-.977-1.477.282-1.957.704-2.867 1.876zm-41.74 20.145c-1.254 1.87-.996 3.71-1.008 5.91l-.041 1.297c-.03 2.575-.03 2.575 1.187 4.794 1.06.823 1.06.823 2.367.974 1.469-.28 1.948-.724 2.867-1.875.772-1.537.525-3.37.542-5.062l.037-1.184c.016-1.811.016-2.902-.923-4.488-1.59-1.38-3.287-1.604-5.029-.366zm21.076 0c-.767 1.242-.932 2.188-.936 3.636l-.003 1.141.01 1.184-.01 1.183.003 1.142.003 1.038c.119 1.06.356 1.704.933 2.598 1.454.964 2.008 1.06 3.72.822 1.194-.716 1.194-.716 2.066-2.055.297-1.59.27-3.141.233-4.754l.014-1.297c.063-2.345.063-2.345-1.01-4.34-1.591-1.27-3.347-1.548-5.023-.298zm21.568-.103c-1.701 1.741-1.406 3.728-1.42 6.012l-.026 1.06c-.013 2.001.068 3.325 1.369 4.953.773.93.773.93 1.989 1.002 1.353-.086 1.353-.086 2.418-.922 1.437-1.955 1.253-3.706 1.198-6.067l.014-1.297c.064-2.345.064-2.345-1.012-4.336-1.587-1.275-2.783-1.486-4.53-.405zm34.638 14.492c-.848 1.687-.526 3.849-.542 5.704l-.037 1.373-.01 1.322-.018 1.21c.25 1.394.731 1.871 1.847 2.724 1.447.274 1.447.274 2.893 0 1.201-.912 1.587-1.447 2.066-2.878.103-1.206.096-2.413.104-3.623l.026-.99c.013-2.061-.219-3.467-1.369-5.253-1.901-1.3-3.152-.82-4.96.41zm21.491-.411c-1.253 1.87-.995 3.71-1.008 5.91l-.041 1.297c-.03 2.575-.03 2.575 1.187 4.794 1.061.823 1.061.823 2.367.974 1.469-.28 1.949-.725 2.867-1.875.747-1.486.508-3.22.517-4.857l.026-1.125c.012-2.037-.005-3.478-1.369-5.118-1.651-1.078-2.88-1.017-4.546 0zm21.077.41c-1.225 1.828-.995 3.554-1.008 5.705l-.041 1.238c-.021 2.493-.021 2.493 1.189 4.633 1.055.833 1.055.833 2.339 1.015 1.737-.36 2.244-.895 3.307-2.313.296-1.513.27-2.985.232-4.522l.014-1.227c-.019-1.84-.056-2.98-1.024-4.58-1.836-1.616-3.119-1.37-5.008.052zm-118.92 6.27c-1.368.974-1.368.974-1.884 2.47a209.943 209.943 0 00-.054 3.723l-.041 1.303c-.03 2.586-.03 2.586 1.187 4.815 1.347.908 1.986 1.046 3.58.742.953-.767 1.521-1.38 2.067-2.467.11-1.342.096-2.688.104-4.034l.025-1.125c.012-2.027.013-3.502-1.369-5.119-1.477-.766-2.077-1.004-3.616-.308zm20.146.72c-1.198 1.787-.962 3.396-.955 5.498l-.02 1.179c-.007 2.83-.007 2.83 1.389 5.245 1.194.594 1.982.566 3.306.411 1.247-.855 1.963-1.527 2.258-3.04.072-1.185.07-2.35.04-3.538l.015-1.227c-.02-1.84-.056-2.98-1.025-4.58-1.835-1.616-3.118-1.37-5.008.052zm21.078 0c-.727 1.178-.933 2.068-.937 3.441l-.003 1.024.01 1.059-.01 1.054c.006 1.797.012 3.336.94 4.933 1.454.964 2.007 1.06 3.72.822 1.194-.716 1.194-.716 2.066-2.055.296-1.59.27-3.142.232-4.754l.014-1.297c.066-2.35.066-2.35-1.025-4.338-1.851-1.506-3.166-1.325-5.007.11zm36.471 13.258c-.944.7-.944.7-1.756 1.542-.2 1.619-.153 3.252-.155 4.882l-.031 1.373-.005 1.321-.01 1.211c.259 1.39.739 1.872 1.854 2.724 1.447.274 1.447.274 2.893 0 1.201-.912 1.587-1.447 2.066-2.878.103-1.206.096-2.413.104-3.623l.026-.99c.013-2.055-.198-3.486-1.369-5.254-1.476-.797-2.069-1.008-3.617-.308zm21.078 0c-1.369.973-1.369.973-1.877 2.47a256.58 256.58 0 00-.035 3.722l-.031 1.304c-.012 2.519-.012 2.519.932 4.815.903.865.903.865 2.354.973 1.639-.262 2.108-.586 3.099-1.876.747-1.486.508-3.22.517-4.856l.026-1.125c.012-2.027.012-3.502-1.369-5.119-1.477-.766-2.078-1.004-3.616-.308zm19.32 1.953c-.251 1.512-.249 2.993-.232 4.522l-.03 1.227c.004 1.972.021 2.974 1.232 4.59 1.052.836 1.052.836 2.336 1.018 1.737-.36 2.244-.895 3.307-2.313.296-1.513.27-2.985.232-4.522l.014-1.227c-.019-1.817-.072-2.989-.984-4.59-.959-.797-1.337-1.042-2.569-1.018l-.826-.016c-1.384.457-1.762 1.069-2.48 2.329zM36.485 99.705c-1.1 1.919-.987 3.652-.953 5.823l-.02 1.227c.01 1.828.048 2.986.976 4.593.895.886.895.886 2.35.963 1.475-.209 2.08-.385 3.1-1.438.59-1.761.506-3.45.517-5.294l.025-1.119c.012-2.027-.004-3.471-1.369-5.099-1.632-.812-3.215-.83-4.626.344zm20.744.479c-.59 1.76-.506 3.449-.516 5.293l-.026 1.119c-.012 2.027.004 3.471 1.369 5.099 1.293.643 2.296.557 3.72.411 1.084-.903 1.586-1.64 1.81-3.04.065-1.183.068-2.352.049-3.538l.02-1.227c-.01-1.828-.048-2.986-.976-4.593-.895-.886-.895-.886-2.35-.963-1.475.21-2.08.385-3.1 1.439zm21.077.411c-.747 1.486-.507 3.22-.516 4.856l-.026 1.125c-.012 2.032-.002 3.487 1.369 5.119 1.278.635 2.312.532 3.72.411 1.108-.843 1.59-1.337 1.866-2.711l.006-1.195.007-1.31-.02-1.362.02-1.362-.007-1.31-.006-1.195c-.275-1.373-.764-1.864-1.867-2.71-2.179-.31-3.197-.111-4.546 1.644zm35.876 13.024c-.911 1.163-.96 1.754-.967 3.215l-.006 1.31.019 1.362-.019 1.362a9606.997 9606.997 0 01.012 2.505c.273 1.359.806 1.843 1.867 2.711.762.446.762.446 1.653.411 1.355-.485 2.237-.805 2.959-2.078.474-1.653.484-3.201.477-4.911l.02-.989c.001-1.938-.15-3.183-1.389-4.767-.799-.965-.799-.965-2.222-.976-1.488.022-1.488.022-2.404.845zm21.076.049c-1.125 1.983-.986 3.832-.953 6.069l-.019 1.297.007 1.249.005 1.134c.278 1.326.833 1.816 1.867 2.667 1.08.485 1.554.435 2.712.154 1.315-.738 1.623-1.244 2.248-2.621.179-1.373.173-2.728.155-4.111l.014-1.108c-.009-2.008-.068-3.445-1.409-5.059-1.627-.809-3.21-.827-4.627.329zm20.331 1.316c-.296 1.513-.27 2.985-.232 4.522l-.014 1.227c.019 1.84.056 2.981 1.024 4.58 1.036.912 1.557 1.182 2.942 1.182 1.441-.667 2.001-1.137 2.893-2.467.2-1.483.172-2.975.18-4.471l.042-1.238c.021-2.493.021-2.493-1.189-4.633-1.055-.832-1.055-.832-2.34-1.015-1.736.36-2.243.895-3.306 2.313zm-118.885 5.673c-1.436 1.957-1.252 3.708-1.198 6.069l-.013 1.297c-.067 2.351-.067 2.351 1.024 4.338 1.036.843 1.603 1.09 2.941 1.123 1.572-.691 2.259-1.309 2.893-2.878.17-1.358.134-2.718.13-4.085l.02-1.114c.001-2.018-.037-3.458-1.39-5.079-1.648-.82-2.896-.686-4.407.329zm20.525.904c-.772 1.537-.525 3.371-.542 5.062l-.036 1.185c-.017 1.819-.022 2.9.937 4.486 1.038.918 1.557 1.19 2.947 1.19 1.441-.667 2.002-1.137 2.893-2.467.2-1.483.172-2.975.181-4.471l.041-1.238c.021-2.493.021-2.493-1.187-4.635-1.058-.837-1.058-.837-2.367-.987-1.469.28-1.948.725-2.867 1.875zm21.077 0c-.57 1.703-.505 3.305-.516 5.088l-.026 1.06c-.013 1.98.035 3.367 1.369 4.953 1.383.688 2.107.915 3.616.539 1.045-.515 1.045-.515 1.757-1.773.201-1.552.172-3.113.18-4.676l.041-1.298c.03-2.575.03-2.575-1.187-4.793-1.06-.824-1.06-.824-2.367-.975-1.477.281-1.957.703-2.867 1.875zm35.129 13.978c-.306 1.648-.269 3.263-.233 4.934l-.013 1.362c-.078 2.439-.078 2.439 1.024 4.511 1.037.835 1.607 1.083 2.941 1.116 1.235-.514 1.884-.902 2.532-2.078.493-1.653.498-3.196.491-4.911l.02-.99c.001-1.938-.15-3.182-1.389-4.766-.772-.934-.772-.934-1.989-.976-1.733.203-2.24.47-3.384 1.798zm22.044-.902c-1.439 1.955-1.254 3.705-1.199 6.067l-.014 1.297c-.066 2.351-.066 2.351 1.024 4.338 1.036.843 1.604 1.09 2.942 1.123 1.57-.691 2.26-1.309 2.893-2.878.125-.925.125-.925.109-1.902l.004-1.085a383.61 383.61 0 01-.01-1.124l.01-1.124-.004-1.086-.003-.986c-.121-1.038-.369-1.68-.933-2.56-1.795-1.19-3.002-1.306-4.819-.08zm20.11 1.313c-.296 1.514-.27 2.986-.232 4.523l-.014 1.227c.019 1.831.059 2.981 1.011 4.578 1.158 1.007 1.832 1.215 3.368 1.184 1.135-.728 1.873-1.26 2.48-2.467.132-1.479.134-2.961.155-4.445l.046-1.244c.039-2.504.039-2.504-1.167-4.655-1.056-.83-1.056-.83-2.341-1.013-1.736.36-2.243.895-3.306 2.312zm-118.883 5.676c-1.44 1.955-1.254 3.705-1.2 6.067l-.013 1.297c-.065 2.345-.065 2.345 1.011 4.336 1.16.931 1.88 1.125 3.368 1.125 1.135-.728 1.872-1.26 2.48-2.467.098-1.42.076-2.843.077-4.265l.015-1.195.002-1.153.006-1.054c-.111-1.07-.343-1.709-.927-2.611-1.795-1.19-3.002-1.306-4.82-.08zm20.523.902c-.773 1.538-.49 3.395-.49 5.088l-.016 1.195-.002 1.153-.005 1.054c.11 1.056.368 1.711.926 2.61 1.041.777 1.583.826 2.893.771 1.45-.42 1.949-.848 2.893-2.004.335-1.552.25-3.119.233-4.702l.03-1.292c-.003-2.566-.003-2.566-1.231-4.772-1.057-.826-1.057-.826-2.364-.976-1.469.279-1.948.724-2.867 1.875zm21.077 0c-.57 1.703-.505 3.304-.516 5.088l-.026 1.06c-.013 1.986.043 3.356 1.369 4.952 1.16.945 1.16.945 2.454.771 1.47-.418 1.964-.833 2.918-2.004.335-1.552.25-3.119.233-4.702l.03-1.292c-.003-2.566-.003-2.566-1.231-4.772-1.057-.826-1.057-.826-2.364-.976-1.477.281-1.957.703-2.867 1.875zm35.129 14.389c-.309 1.581-.289 3.122-.258 4.728l-.025 1.286c.013 2.01.037 3.101 1.239 4.765 1.096.87 1.096.87 2.608.732 1.605-.457 1.605-.457 2.635-1.644.511-1.689.489-3.363.491-5.113l.015-.936c.005-1.727-.087-3.078-.919-4.64-.881-.877-1.44-1.19-2.661-1.439-1.636.318-2.129.933-3.125 2.261zm21.077 0c-.309 1.581-.288 3.122-.258 4.728l-.024 1.286c.013 2.015.026 3.096 1.252 4.751 1.056.827 1.056.827 2.362.978 1.477-.282 1.958-.704 2.867-1.876.571-1.703.506-3.304.517-5.088l.026-1.059c.012-1.987-.043-3.356-1.369-4.953-2.372-1.573-3.716-.982-5.373 1.233zm21.904-1.233c-.772 1.239-.933 2.19-.937 3.636l-.003 1.142.01 1.183-.01 1.184.003 1.141.003 1.039c.119 1.058.356 1.703.934 2.597 1.443.957 2.022 1.029 3.719.822.952-.767 1.52-1.379 2.067-2.466.099-1.42.076-2.843.077-4.266l.016-1.194.002-1.153.005-1.054c-.11-1.058-.364-1.713-.927-2.611-1.679-1.114-3.28-1.114-4.959 0zm-119.85 6.989c-1.254 1.869-.996 3.71-1.008 5.91l-.041 1.297c-.03 2.575-.03 2.575 1.187 4.794 1.06.823 1.06.823 2.367.975 1.469-.28 1.948-.725 2.867-1.876.772-1.537.525-3.371.542-5.062l.037-1.184c.016-1.811.016-2.902-.923-4.488-1.59-1.379-3.287-1.604-5.029-.366zm21.076 0c-.765 1.239-.925 2.16-.907 3.604l.008 1.108.021 1.146.012 1.166c.01.948.023 1.895.04 2.843 1.158-1.135 2.278-2.268 3.306-3.521.785-.936 1.425-1.549 2.428-2.286.968-.698.968-.698 1.11-1.799-.31-1.372-.75-1.841-1.885-2.672-1.637-.475-2.731-.634-4.133.411zm9.506 9.867l-1.292.899c-4.053 3.493-5.326 8.506-5.848 13.563-.3 1.16-.3 1.16-.96 1.9-1.322.657-2.645.833-4.092 1.033-4.703.769-9.073 2.677-12.046 6.504-2.244 3.206-2.244 3.206-3.038 6.934h73.976l-.413-2.878c-.534-7.049.708-12.782 5.321-18.346l.878-.976c-3.335-1.92-6.544-2.155-10.301-1.402-3.397 1.037-5.764 3.231-8.117 5.812-1.032.912-2.153.865-3.486.934-.93-.179-.93-.179-1.653-.822-.63-1.438-1.111-2.866-1.567-4.366-1.457-4.46-4.296-7.999-8.351-10.434-6.498-2.916-13.265-2.884-19.011 1.645zm-30.583 11.511c-.911.734-.911.734-.92 1.708l.013 1.083.008 1.172.021 1.227.012 1.237c.01 1.009.023 2.019.04 3.028 1.086-1.064 2.11-2.11 3.074-3.289.835-.973 1.444-1.537 2.453-2.261l1.085-1.027c.028-1.365-.153-2.092-.93-3.212-1.888-1.275-3.08-.956-4.856.334zm120.513 3.79c-2.436 2.543-2.436 2.543-3.555 5.665-3.668.716-3.668.716-5.269-.334a42.14 42.14 0 01-2.118-3.34c-2.036-3.477-4.935-5.345-8.731-6.603-4.947-.451-8.46.141-12.539 3.189-2.706 2.396-4.145 5.404-4.588 8.966-.113 3.361.356 4.677 1.836 7.989h64.471c.528-5.772-.247-10.158-3.978-14.646-1.749-1.876-3.649-3.125-5.941-4.265l-.823-.41c-6.332-2.731-13.813-.774-18.765 3.789z" fill="#fff" opacity=".15"/></svg>