<svg width="163" height="214" fill="none" xmlns="http://www.w3.org/2000/svg"><g opacity=".15" fill="#fff"><path d="M131.836 213.131v-72.276H31.391v72.276h100.445zM19.277 87.776c-4.36.2-6.812.2-9.235.43-8.807.859-12.142 5.729-8.722 14.065a172.24 172.24 0 0012.228 25.18 15.308 15.308 0 004.737 4.402 15.241 15.241 0 006.123 2.044c38.08.458 76.16.257 114.24.257h1.083c8.352-.744 26.679-35.177 21.377-41.365-2.479-2.865-8.037-4.326-12.227-4.355-37.738-.343-75.448-.2-113.157-.2H24.322c-5.045-18.735-2.85-25.152 11.402-36.295a6.784 6.784 0 001.853-2.364c.434-.917.658-1.92.655-2.936-.257-1.518-2.85-3.896-4.076-3.724a10.458 10.458 0 00-5.53 3.724c-10.26 11.401-11.6 25.295-9.349 41.137z"/><path d="M38.003 81.557h85.081c3.022-19.68-2.023-30.194-18.156-37.24-20.693 18.562-29.301 18.62-46.717.286-15.106 4.583-21.291 15.813-20.208 36.954z"/><path d="M57.702 25.555c.998 14.61 12.74 27.93 24.17 27.415 12.542-.545 23.43-15.44 22.603-30.881a23.01 23.01 0 00-2.135-8.888 22.915 22.915 0 00-5.423-7.34 22.777 22.777 0 00-7.847-4.627A22.696 22.696 0 0080.05.06a23.564 23.564 0 00-9.06 2.34 23.67 23.67 0 00-7.447 5.686 23.806 23.806 0 00-4.673 8.143c-1.003 3-1.4 6.17-1.168 9.326z"/></g></svg>