<svg width="235" height="235" fill="none" xmlns="http://www.w3.org/2000/svg"><g clip-path="url(#clip0_8387_61352)"><g clip-path="url(#clip1_8387_61352)" fill="#fff" opacity=".15"><path d="M23.128 57.959l.985-.005c1.089-.004 2.178-.002 3.267 0l2.367-.006c2.167-.006 4.335-.006 6.502-.005 2.338 0 4.676-.005 7.014-.01 4.58-.007 9.16-.01 13.74-.01 3.724 0 7.446-.002 11.169-.005 10.553-.008 21.106-.013 31.66-.012h3.45c9.233 0 18.467-.008 27.701-.022 9.479-.013 18.959-.02 28.439-.019 5.322 0 10.645-.002 15.968-.012 4.531-.008 9.063-.01 13.595-.004 2.312.003 4.624.003 6.936-.005a840.32 840.32 0 016.351.002c.765.001 1.531 0 2.296-.005 3.928-.025 7.394-.024 10.825 2.105l.985.6c10.802 6.942 14.677 24.244 17.221 35.81 2.473 11.562 2.473 11.562 0 15.871-2.551 3.656-5.46 5.291-9.803 6.069-10.949 1.117-22.031 1.396-33.026 1.692l-1.206.034c-35.834.971-35.834.971-47.218-9.339-4.694-4.529-8.719-9.931-12.01-15.55-1.898-3.234-3.287-4.591-6.951-5.576a13.452 13.452 0 00-9.286 1.198c-1.419 1.04-2.664 2.215-3.91 3.454-.906.892-1.83 1.765-2.753 2.64a1204.5 1204.5 0 00-2.148 2.075l-1.044.99c-2.831 2.787-4.737 5.806-5.107 9.857.05 2.251.514 4.457.958 6.658-4.067 2.383-8.15 2.124-12.71 2.094a1258.09 1258.09 0 01-9.594-.007c-2.448-.008-4.897-.007-7.345-.006-4.11-.001-8.221-.009-12.332-.022-4.747-.015-9.493-.02-14.24-.019-5.062.001-10.124-.006-15.186-.014l-4.364-.003c-2.29-.001-4.58-.007-6.87-.016-.838-.003-1.676-.004-2.514-.004-11.615.005-11.615.005-16.029-4.184-2.81-3.076-3.089-5.922-2.912-9.956.18-1.611.455-3.193.759-4.785l.252-1.338c2.604-13.33 6.953-30.463 18.848-38.531 2.413-1.316 4.537-1.676 7.27-1.68z"/><path d="M123.109 96.401c1.663 1.168 3.038 2.533 4.468 3.972l.949.944c1.031 1.026 2.058 2.057 3.085 3.087l2.15 2.147c1.5 1.499 2.998 2.999 4.495 4.5 1.92 1.925 3.844 3.846 5.769 5.766 1.48 1.476 2.957 2.955 4.434 4.434l2.128 2.126c.991.988 1.979 1.98 2.967 2.973l.891.885.815.823.708.709c1.214 1.448 1.713 2.696 1.574 4.58-.269 1.746-.725 2.68-1.918 3.977l-.892.974a250.132 250.132 0 01-4.834 4.939l-1.011 1.017-.967.965-.87.869c-1.542 1.416-3.083 1.387-5.102 1.367-2.235-.398-3.446-1.911-4.974-3.488a152.553 152.553 0 00-2.101-1.838l-1.633-1.43-.088 1.663c-.608 5.314-2.853 10.105-5.439 14.71-.673 1.272-.673 1.272-.264 2.223.885 1.363 1.985 2.461 3.136 3.596l.775.775c.857.857 1.717 1.71 2.578 2.563l1.845 1.84c1.324 1.322 2.649 2.642 3.976 3.96 2.097 2.085 4.191 4.173 6.284 6.261 4.443 4.433 8.89 8.862 13.337 13.29 4.801 4.781 9.602 9.562 14.397 14.348 2.082 2.076 4.166 4.151 6.251 6.224 1.296 1.289 2.59 2.58 3.884 3.871.6.599 1.202 1.198 1.805 1.795.821.815 1.64 1.632 2.458 2.451l.727.717c1.151 1.157 2.13 2.186 2.687 3.737-.148 3.441-2.381 5.109-4.697 7.41l-1.181 1.244-1.169 1.174-1.058 1.072c-1.642 1.027-3.097 1.109-4.965.77-1.154-.793-1.947-1.456-2.895-2.446l-.807-.797c-.887-.882-1.761-1.776-2.636-2.671a968.148 968.148 0 01-7.049-7.094c-1.788-1.812-3.588-3.614-5.386-5.417a3652.467 3652.467 0 01-10.187-10.266c-3.86-3.902-7.731-7.793-11.603-11.684a12574.787 12574.787 0 01-23.855-24.043l-.768.369c-1.161.557-2.323 1.112-3.485 1.667l-1.208.581c-2.818 1.344-5.609 2.445-8.631 3.247l-1.228.347c-.96.271-1.922.532-2.885.791.36.354.72.708 1.09 1.074l1.419 1.405.718.707c2.153 2.139 3.154 3.534 3.308 6.616-.907 3.259-3.128 5.312-5.49 7.651-.665.663-1.317 1.337-1.969 2.013-4.122 4.128-4.122 4.128-7.479 4.34-3.046-.532-4.54-1.874-6.623-4.002l-.963-.955a547.77 547.77 0 01-3.115-3.133l-2.177-2.177a1505.76 1505.76 0 01-4.545-4.569 1461.702 1461.702 0 00-5.831-5.849 1962.204 1962.204 0 01-4.487-4.499l-2.152-2.156a716.8 716.8 0 01-2.996-3.019l-.9-.897c-1.859-1.894-2.918-3.361-3.263-6.058.462-3.769 4.163-6.489 6.71-9.015l1.277-1.288 1.233-1.229 1.12-1.116c1.23-1.088 2.232-1.78 3.876-1.956 3.223.237 4.735 1.617 6.965 3.838.618.54 1.24 1.076 1.868 1.605l1.4 1.196.159-1.632c.26-2.059.802-3.918 1.504-5.866l.371-1.034c2.037-5.476 4.755-10.464 8.702-14.808l1.147-1.278c6.748-7.143 15.827-11.407 25.461-13.193l-1.197-1.4-.765-.903a64.256 64.256 0 00-1.736-1.914c-1.279-1.371-2.244-2.441-2.896-4.214.131-3.08 1.671-5.086 3.793-7.188l.675-.673c.467-.465.936-.927 1.407-1.386.722-.705 1.435-1.416 2.148-2.13 5.455-5.4 5.455-5.4 9.446-3.484z"/><path d="M.667 123.43l1.443.298 1.9.387.948.196a43.07 43.07 0 007.35.84l1.118.048c.882.038 1.763.069 2.645.098l.028 1.211c.037 1.506.078 3.011.12 4.516.018.647.034 1.294.05 1.942.155 6.735.7 13.196 5.491 18.413 3.818 3.447 8.675 5.482 13.844 5.308 5.528-.631 10.156-3.047 13.723-7.321 4.933-7.192 3.804-15.544 4.088-24.069H84.69c-2.852 3.327-2.852 3.327-4.347 4.93-3.915 4.487-6.661 9.792-9.19 15.142l-.84-.22c-4.359-1.024-8.045-1.028-11.972 1.254-2.22 1.553-4.099 3.465-5.993 5.391a198.84 198.84 0 01-2.16 2.148c-3.495 3.486-5.75 6.512-6.255 11.558.315 3.902 1.573 6.652 4.26 9.509l.68.726c2.809 2.98 5.696 5.884 8.586 8.783l.89.895c1.551 1.557 3.103 3.113 4.655 4.667 1.592 1.595 3.18 3.194 4.766 4.793 1.234 1.243 2.47 2.482 3.708 3.72.587.588 1.172 1.177 1.756 1.768 6.319 6.609 6.319 6.609 14.857 8.972 5.003-.335 8.06-3.187 11.537-6.548l.762-.726c5.691-5.064 5.691-5.064 8.169-11.945l-.004-1.712.004-1.701a28.618 28.618 0 00-.529-4.455 95.85 95.85 0 011.751-.963l.984-.541c1.213-.441 1.663-.315 2.867.104.718.543.718.543 1.412 1.237l.805.795.866.877.925.92c1.009 1.005 2.012 2.015 3.016 3.025l2.095 2.095c1.464 1.463 2.925 2.929 4.384 4.397 1.874 1.885 3.754 3.765 5.635 5.643 1.443 1.441 2.883 2.885 4.323 4.329.692.694 1.385 1.388 2.079 2.081.967.966 1.931 1.936 2.894 2.907l.877.873c1.964 1.989 1.964 1.989 1.964 3.03-16.995.032-33.991.056-50.987.071l-6.02.006-1.211.001c-6.468.006-12.935.017-19.403.03-6.637.013-13.274.021-19.912.023-4.095.002-8.19.008-12.284.02-2.81.007-5.618.009-8.427.008-1.62-.001-3.24 0-4.86.008-1.758.007-3.517.005-5.275.001l-1.543.012c-3.983-.023-7.557-.709-10.784-3.171-2.636-2.675-3.593-5.909-3.59-9.562l-.001-.997a916.6 916.6 0 01.004-3.316v-2.373c0-2.151.002-4.301.006-6.452a16815.829 16815.829 0 01.014-19.505l.01-14.533c.004-9.965.012-19.931.023-29.896zm229.665 0c.044 10.396.077 20.791.097 31.187.01 4.827.023 9.654.044 14.482.019 4.208.031 8.416.035 12.624.003 2.228.008 4.455.022 6.682.013 2.099.016 4.197.014 6.296 0 .768.004 1.536.011 2.305.041 4.642-.08 8.457-3.14 12.198-2.338 1.913-4.362 3.299-7.352 3.851l-1.236.239c-10.462 1.899-23.64 3.745-32.993-2.465-8.565-6.041-15.677-14.217-22.649-21.967-3.018-3.346-6.137-6.592-9.261-9.839-4.594-4.782-9.161-9.595-13.615-14.508-.478-.526-.958-1.05-1.441-1.571a179.86 179.86 0 01-1.949-2.15l-1.102-1.214c-.711-1.141-.711-1.141-.637-2.358.483-1.374 1.107-2.634 1.793-3.917l1.284.233c4.212.571 8.122.763 11.786-1.634 1.665-1.295 3.16-2.728 4.668-4.201l1.667-1.563c3.949-3.756 7.239-7.286 7.815-12.937-.171-2.159-.809-3.872-1.604-5.873-.409-1.1-.409-1.1-.409-2.033h15.404c.175 6.71.175 6.71.224 8.797.19 6.369.963 12.382 5.466 17.285 3.817 3.447 8.675 5.482 13.843 5.308 5.529-.631 10.156-3.047 13.723-7.321 2.85-4.155 3.62-8.497 3.769-13.448l.029-.928c.031-.965.058-1.93.086-2.895l.061-1.98c.05-1.606.097-3.212.143-4.818l1.608-.053c4.574-.183 9.365-1.814 13.796-1.814zM85.022 36.536l1.682-.01 1.847-.004 1.944-.01c2.129-.009 4.257-.014 6.386-.019l2.2-.005c3.445-.01 6.89-.016 10.336-.02 3.974-.004 7.949-.017 11.923-.035 3.074-.014 6.148-.021 9.221-.023a918.35 918.35 0 005.505-.017 596.68 596.68 0 015.182-.008c.933 0 1.866-.009 2.799-.018 3.182.019 5.314.126 7.865 2.105 3.337 4.303 2.334 6.163 2.334 12.603H76.758c0-8.402 0-8.402 1.867-12.136 2.064-1.964 3.601-2.392 6.397-2.403z"/><path d="M199.61 129.556c1.813 1.208 3.127 2.636 4.114 4.609.243 2.441.3 4.5-.759 6.74-2.087 2.251-3.973 3.39-7.033 3.606-2.507-.178-4.275-1.366-5.949-3.169-1.528-2.321-1.475-4.444-1.197-7.177 1.02-2.078 2.306-3.355 4.202-4.668 2.325-.775 4.342-.746 6.622.059zm-161.511 0c1.813 1.208 3.127 2.636 4.113 4.609.243 2.441.3 4.5-.758 6.74-2.087 2.251-3.974 3.39-7.033 3.606-2.508-.178-4.276-1.366-5.95-3.169-1.527-2.321-1.475-4.444-1.196-7.177 1.02-2.078 2.305-3.355 4.2-4.668 2.326-.775 4.343-.746 6.623.059z"/></g></g><defs><clipPath id="clip0_8387_61352"><path fill="#fff" d="M0 0h235v235H0z"/></clipPath><clipPath id="clip1_8387_61352"><path fill="#fff" transform="translate(-4 17)" d="M0 0h239v239H0z"/></clipPath></defs></svg>