<svg width="34" height="34" fill="none" xmlns="http://www.w3.org/2000/svg"><rect width="34" height="34" rx="17" fill="#B1976B"/><path d="M20.62 18.764l-.464.461s-1.101 1.094-4.107-1.894c-3.005-2.988-1.904-4.082-1.904-4.082l.291-.291c.72-.714.787-1.862.16-2.7l-1.282-1.711c-.777-1.038-2.277-1.175-3.167-.29L8.55 9.843c-.44.44-.735 1.007-.7 1.638.092 1.614.822 5.085 4.895 9.135 4.32 4.294 8.372 4.465 10.03 4.31.524-.048.98-.315 1.347-.68l1.444-1.437c.977-.97.702-2.632-.547-3.31l-1.943-1.057c-.82-.445-1.816-.314-2.457.322z" fill="#fff"/></svg>