<svg width="34" height="34" fill="none" xmlns="http://www.w3.org/2000/svg"><rect width="34" height="34" rx="17" fill="#B1976B"/><path fill-rule="evenodd" clip-rule="evenodd" d="M17.002 8.043a8.958 8.958 0 11-4.281 16.83l-3.95.662a.625.625 0 01-.721-.71l.667-4.409a8.917 8.917 0 01-.674-3.415 8.958 8.958 0 018.959-8.958zm-3.381 4.542c-.613 0-1.12.516-1.025 1.155.18 1.196.711 3.401 2.293 4.995 1.654 1.666 4.02 2.378 5.3 2.659.663.146 1.23-.38 1.23-1.027v-1.52a.249.249 0 00-.16-.233l-1.634-.628a.25.25 0 00-.138-.011l-1.648.321c-1.062-.55-1.706-1.166-2.091-2.095l.31-1.68a.25.25 0 00-.012-.133l-.613-1.64a.25.25 0 00-.233-.163h-1.58z" fill="#fff"/></svg>