<svg width="34" height="34" fill="none" xmlns="http://www.w3.org/2000/svg"><rect width="34" height="34" rx="17" fill="#B1976B"/><path d="M25.011 13.385v-2.959a1.143 1.143 0 00-.335-.809L23.058 8a1.144 1.144 0 00-.81-.335h-8.68a1.144 1.144 0 00-1.143 1.144v16.02a1.144 1.144 0 001.144 1.144H25.01a1.144 1.144 0 001.144-1.145V14.53a1.144 1.144 0 00-1.144-1.144zm-6.865 9.726a.572.572 0 01-.572.572h-1.145a.572.572 0 01-.572-.572v-1.144a.572.572 0 01.572-.572h1.145a.572.572 0 01.572.572v1.144zm0-4.577a.572.572 0 01-.572.572h-1.145a.572.572 0 01-.572-.572V17.39a.572.572 0 01.572-.572h1.145a.572.572 0 01.572.572v1.144zm4.577 4.577a.572.572 0 01-.572.572h-1.145a.572.572 0 01-.572-.572v-1.144a.572.572 0 01.572-.572h1.145a.572.572 0 01.572.572v1.144zm0-4.577a.572.572 0 01-.572.572h-1.145a.572.572 0 01-.572-.572V17.39a.572.572 0 01.572-.572h1.145a.572.572 0 01.572.572v1.144zm0-4.005h-8.01V9.953h5.721v1.716a.572.572 0 00.572.572h1.717v2.288zm-12.587-2.288H8.992a1.144 1.144 0 00-1.144 1.144v11.443a1.144 1.144 0 001.144 1.144h1.144a1.144 1.144 0 001.144-1.145V13.386a1.144 1.144 0 00-1.144-1.144z" fill="#fff"/></svg>