<svg width="500" height="500" viewBox="0 0 500 500" fill="none" xmlns="http://www.w3.org/2000/svg">
<rect width="500" height="500" fill="white"/>
<path fill-rule="evenodd" clip-rule="evenodd" d="M89.0611 37.2282L426.377 374.909L398.316 403L381.878 386.544H80.8418V85.1828L61 65.3205L89.0611 37.2282ZM279.264 307.09L180.053 207.772L120.525 301.925V346.816H342.193L289.845 294.411L279.264 307.09ZM438 29V330.362L313.177 205.404L338.79 179.764L398.315 239.355V68.7265H176.647L136.963 29H438ZM120.525 124.908V226.279L159.349 163.773L120.525 124.908ZM309.027 108.455C325.464 108.455 338.79 121.795 338.79 138.25C338.79 154.705 325.464 168.045 309.027 168.045C292.589 168.045 279.264 154.705 279.264 138.25C279.264 121.795 292.589 108.455 309.027 108.455Z" fill="#969696"/>
<path d="M124 460V426.4H130.432L150.256 450.592H147.136V426.4H154.816V460H148.432L128.56 435.808H131.68V460H124ZM179.085 460.576C176.429 460.576 173.965 460.144 171.693 459.28C169.453 458.416 167.501 457.2 165.837 455.632C164.205 454.064 162.925 452.224 161.997 450.112C161.101 448 160.653 445.696 160.653 443.2C160.653 440.704 161.101 438.4 161.997 436.288C162.925 434.176 164.221 432.336 165.885 430.768C167.549 429.2 169.501 427.984 171.741 427.12C173.981 426.256 176.413 425.824 179.037 425.824C181.693 425.824 184.125 426.256 186.333 427.12C188.573 427.984 190.509 429.2 192.141 430.768C193.805 432.336 195.101 434.176 196.029 436.288C196.957 438.368 197.421 440.672 197.421 443.2C197.421 445.696 196.957 448.016 196.029 450.16C195.101 452.272 193.805 454.112 192.141 455.68C190.509 457.216 188.573 458.416 186.333 459.28C184.125 460.144 181.709 460.576 179.085 460.576ZM179.037 453.952C180.541 453.952 181.917 453.696 183.165 453.184C184.445 452.672 185.565 451.936 186.525 450.976C187.485 450.016 188.221 448.88 188.733 447.568C189.277 446.256 189.549 444.8 189.549 443.2C189.549 441.6 189.277 440.144 188.733 438.832C188.221 437.52 187.485 436.384 186.525 435.424C185.597 434.464 184.493 433.728 183.213 433.216C181.933 432.704 180.541 432.448 179.037 432.448C177.533 432.448 176.141 432.704 174.861 433.216C173.613 433.728 172.509 434.464 171.549 435.424C170.589 436.384 169.837 437.52 169.293 438.832C168.781 440.144 168.525 441.6 168.525 443.2C168.525 444.768 168.781 446.224 169.293 447.568C169.837 448.88 170.573 450.016 171.501 450.976C172.461 451.936 173.581 452.672 174.861 453.184C176.141 453.696 177.533 453.952 179.037 453.952ZM216.859 460V426.4H224.635V460H216.859ZM232.609 460V426.4H239.041L253.345 450.112H249.937L264.001 426.4H270.385L270.481 460H263.185L263.137 437.584H264.481L253.249 456.448H249.745L238.273 437.584H239.905V460H232.609ZM274.037 460L289.013 426.4H296.693L311.717 460H303.557L291.269 430.336H294.341L282.005 460H274.037ZM281.525 452.8L283.589 446.896H300.869L302.981 452.8H281.525ZM330.958 460.576C328.302 460.576 325.854 460.16 323.614 459.328C321.406 458.464 319.47 457.248 317.806 455.68C316.174 454.112 314.894 452.272 313.966 450.16C313.07 448.048 312.622 445.728 312.622 443.2C312.622 440.672 313.07 438.352 313.966 436.24C314.894 434.128 316.19 432.288 317.854 430.72C319.518 429.152 321.47 427.952 323.71 427.12C325.95 426.256 328.414 425.824 331.102 425.824C334.078 425.824 336.75 426.32 339.118 427.312C341.518 428.304 343.534 429.744 345.166 431.632L340.174 436.24C338.958 434.96 337.63 434.016 336.19 433.408C334.75 432.768 333.182 432.448 331.486 432.448C329.854 432.448 328.366 432.704 327.022 433.216C325.678 433.728 324.51 434.464 323.518 435.424C322.558 436.384 321.806 437.52 321.262 438.832C320.75 440.144 320.494 441.6 320.494 443.2C320.494 444.768 320.75 446.208 321.262 447.52C321.806 448.832 322.558 449.984 323.518 450.976C324.51 451.936 325.662 452.672 326.974 453.184C328.318 453.696 329.79 453.952 331.39 453.952C332.926 453.952 334.414 453.712 335.854 453.232C337.326 452.72 338.75 451.872 340.126 450.688L344.542 456.304C342.718 457.68 340.59 458.736 338.158 459.472C335.758 460.208 333.358 460.576 330.958 460.576ZM337.438 455.296V442.672H344.542V456.304L337.438 455.296ZM358.917 439.936H375.093V445.984H358.917V439.936ZM359.493 453.76H377.781V460H351.765V426.4H377.157V432.64H359.493V453.76Z" fill="#969696"/>
</svg>
