<svg width="128" height="128" viewBox="0 0 128 128" fill="none" xmlns="http://www.w3.org/2000/svg">
<g opacity="0.2">
<path d="M43.0964 8.15501C43.3432 8.29112 43.3432 8.29112 43.5951 8.42999C45.2434 9.38385 45.7321 10.4943 46.3755 12.2357C46.4905 12.5405 46.4905 12.5405 46.6077 12.8516C46.7735 13.2916 46.9386 13.7319 47.103 14.1724C47.5427 15.35 47.9876 16.5257 48.4319 17.7016C48.5693 18.066 48.5693 18.066 48.7095 18.4377C49.7085 21.0826 50.7351 23.7165 51.7655 26.3493C51.8517 26.5697 51.9378 26.7902 52.0266 27.0173C52.8911 29.3033 52.8911 29.3033 53.8531 31.5473C54.2759 32.8664 53.5309 33.9822 52.9347 35.141C52.8485 35.3116 52.7624 35.4822 52.6736 35.658C52.4888 36.0235 52.3034 36.3886 52.1175 36.7534C51.6284 37.7131 51.1441 38.6751 50.6595 39.637C50.5633 39.8277 50.4671 40.0183 50.368 40.2147C49.4814 41.9749 48.6191 43.7463 47.7938 45.5362C47.2335 46.7408 46.6332 47.8906 45.9504 49.0308C43.8421 52.6503 43.6253 54.8854 44.6758 58.9201C45.1455 60.8101 44.599 61.8409 43.6474 63.462C43.481 63.7366 43.3145 64.0113 43.143 64.2942C42.972 64.5823 42.8013 64.8706 42.6309 65.1591C42.2858 65.7416 41.9386 66.3228 41.5891 66.9027C41.1352 67.6566 40.685 68.4125 40.2365 69.1696C38.9787 71.2869 37.7014 73.3899 36.3572 75.4536C34.3354 74.186 32.487 72.7124 30.6296 71.2202C30.3953 71.0321 30.1609 70.844 29.9195 70.6502C24.9965 66.6566 24.9965 66.6566 23.0461 64.6337C22.6344 64.221 22.2025 63.8467 21.7582 63.4693C19.573 61.5824 17.5457 59.4827 15.6882 57.2749C15.4905 57.0495 15.2927 56.8242 15.089 56.592C10.3066 51.1102 6.21401 44.8174 3.9841 37.8511C3.93138 37.6904 3.87865 37.5298 3.82433 37.3643C1.63433 30.3865 2.77843 22.3778 6.06968 15.9681C6.89974 14.4979 7.83611 13.2069 8.96457 11.9526C9.07143 11.8335 9.17828 11.7144 9.28838 11.5917C18.1438 1.86416 32.179 2.12164 43.0964 8.15501Z" fill="white"/>
<path d="M83.9199 4.98193C84.2091 5.07213 84.4984 5.16233 84.7964 5.25527C90.6784 7.31364 95.3831 11.8681 98.116 17.3989C101.344 24.346 101.381 32.4637 98.7941 39.6104C96.7118 45.1525 93.6152 50.8188 89.3984 55.0356C88.6377 55.1802 87.9197 55.164 87.1572 55.0356C86.4102 54.4753 86.4102 54.4753 86.0619 54.1329C84.3867 52.6947 82.176 52.455 80.0649 52.4763C78.2344 52.6206 76.6948 53.0987 75.3237 54.3236C73.9549 55.3814 72.531 55.157 70.8773 55.0668C67.6433 54.979 64.8377 55.2581 61.7996 56.3751C58.7094 57.5097 55.6429 57.8825 52.543 56.5298C52.6793 55.157 53.1836 54.1289 53.8072 52.9238C53.9121 52.7171 54.0169 52.5104 54.125 52.2974C54.3521 51.8502 54.5802 51.4035 54.809 50.9572C55.171 50.2506 55.5301 49.5426 55.8884 48.8342C56.9073 46.8207 57.9306 44.8096 58.9575 42.8002C59.586 41.5698 60.2107 40.3375 60.833 39.1039C61.0707 38.6346 61.31 38.1659 61.5509 37.6981C61.8873 37.0443 62.2188 36.3883 62.5493 35.7315C62.6499 35.5389 62.7505 35.3464 62.8542 35.148C63.4046 34.0393 63.6294 33.3628 63.251 32.1255C62.9991 31.4903 62.9991 31.4903 62.6693 30.8736C62.5494 30.6384 62.4296 30.4032 62.3061 30.1608C62.1762 29.9104 62.0463 29.6599 61.9125 29.4018C61.6371 28.8612 61.3621 28.3203 61.0876 27.7792C60.8791 27.3692 60.8791 27.3692 60.6664 26.951C59.9542 25.536 59.2757 24.1052 58.5977 22.6736C58.0124 21.4396 57.421 20.2091 56.8161 18.9846C56.488 18.3203 56.1616 17.655 55.8352 16.9898C55.6748 16.6643 55.5136 16.3392 55.3515 16.0146C55.1252 15.5612 54.9021 15.1062 54.6791 14.651C54.5492 14.3889 54.4193 14.1267 54.2854 13.8566C54.0371 13.1997 54.0371 13.1997 54.2861 12.4526C54.7549 12.0377 55.2184 11.6596 55.718 11.2853C55.8635 11.1754 56.009 11.0655 56.1589 10.9523C64.1058 5.03875 74.1692 1.92544 83.9199 4.98193Z" fill="white"/>
<path d="M84.1283 56.8817C84.9558 57.4829 85.3979 58.1399 85.9143 59.0178C86.1319 58.9819 86.3496 58.9459 86.5738 58.9089C90.7056 58.2852 94.6924 58.1766 98.6729 59.6491C102.329 60.9968 105.515 61.1913 109.294 60.153C110.232 59.9848 110.892 60.0152 111.813 60.2629C112.537 61.0651 113.092 61.9339 113.638 62.8641C113.794 63.1288 113.95 63.3935 114.11 63.6662C114.278 63.9533 114.446 64.2404 114.614 64.5275C114.791 64.8279 114.968 65.1283 115.145 65.4286C115.512 66.0524 115.879 66.6765 116.246 67.3008C116.93 68.4659 117.619 69.6289 118.308 70.7915C118.636 71.3465 118.964 71.9019 119.291 72.4578C120.043 73.7315 120.8 75 121.588 76.252C121.855 76.6773 122.12 77.1038 122.385 77.5305C122.715 78.0605 123.049 78.588 123.388 79.1125C124.289 80.5688 124.851 81.6952 124.513 83.4221C123.285 87.0539 120.605 89.2244 117.307 90.9706C113.629 92.6989 109.537 93.0048 105.662 91.7177C102.01 90.2654 98.8431 88.0497 97.1204 84.4182C97.026 84.225 96.9316 84.0317 96.8344 83.8326C96.4669 82.6896 96.4162 81.8814 96.9263 80.7642C97.3656 79.9613 97.8289 79.1777 98.3032 78.395C98.475 78.1056 98.6464 77.816 98.8176 77.5263C99.1633 76.9424 99.5113 76.36 99.8616 75.7789C100.302 75.0477 100.739 74.3148 101.175 73.5808C102.788 70.8702 104.436 68.1808 106.085 65.4924C105.816 65.4976 105.547 65.5027 105.269 65.508C101.879 65.49 98.9657 64.6049 95.7942 63.4584C92.6195 62.4708 89.139 63.0256 85.9143 63.5002C85.818 63.8445 85.818 63.8445 85.7197 64.1958C85.4131 65.0026 85.2075 65.2983 84.5447 65.8193C84.3932 65.9416 84.2416 66.0639 84.0855 66.1899C83.6731 66.4885 83.6731 66.4885 83.175 66.7375C83.0518 86.3369 83.0518 86.3369 82.926 106.332C86.7884 106.332 90.6507 106.332 94.6301 106.332C95.8055 107.508 94.8791 109.651 94.8791 111.313C85.5109 111.313 76.1426 111.313 66.4905 111.313C66.4905 107.079 66.4905 107.079 66.9885 106.332C67.4927 106.242 67.4927 106.242 68.1195 106.247C68.4709 106.248 68.4709 106.248 68.8294 106.248C69.0829 106.251 69.3363 106.255 69.5974 106.259C69.8565 106.26 70.1156 106.261 70.3825 106.263C71.2123 106.267 72.042 106.276 72.8717 106.286C73.4333 106.289 73.9949 106.293 74.5565 106.296C75.9353 106.304 77.3139 106.317 78.6926 106.332C78.695 101.187 78.6889 96.0417 78.6726 90.8963C78.6653 88.5073 78.6607 86.1184 78.6627 83.7294C78.6644 81.6474 78.6609 79.5655 78.6512 77.4835C78.6462 76.3809 78.6438 75.2783 78.6477 74.1756C78.6513 73.138 78.6479 72.1007 78.6391 71.0631C78.6371 70.6821 78.6377 70.301 78.641 69.9199C78.6451 69.3998 78.6401 68.8806 78.6327 68.3605C78.6323 68.0694 78.6318 67.7784 78.6313 67.4785C78.5058 66.6656 78.5058 66.6656 77.7103 66.1635C77.3337 65.9546 77.3337 65.9546 76.9495 65.7414C76.3517 65.1479 75.8337 64.506 75.4553 63.7493C70.6844 62.441 66.392 62.9886 61.8417 64.7872C60.4844 65.2714 59.1233 65.3148 57.6968 65.3835C57.3846 65.3996 57.3846 65.3996 57.066 65.4161C56.5552 65.4423 56.0443 65.4675 55.5334 65.4924C56.1606 66.5667 56.7884 67.6406 57.4167 68.7142C57.5114 68.876 57.6061 69.0379 57.7037 69.2047C59.2026 71.765 60.7183 74.3145 62.2571 76.8511C62.9712 78.0329 63.6736 79.2207 64.3524 80.4231C64.4752 80.6401 64.598 80.857 64.7246 81.0805C65.2645 82.2695 64.9646 83.0919 64.5265 84.2596C62.9014 87.9261 59.6785 90.2296 56.0315 91.6399C55.7224 91.7598 55.7224 91.7598 55.407 91.8821C51.7988 93.0683 47.7487 92.5587 44.3215 91.0621C41.2863 89.5062 38.2078 87.0307 37.1057 83.6711C36.7735 82.1272 36.8746 81.2992 37.7283 79.9513C37.8281 79.784 37.9279 79.6167 38.0308 79.4442C38.2567 79.067 38.4852 78.6912 38.7156 78.3166C39.1257 77.6493 39.5287 76.9779 39.9306 76.3055C40.5539 75.263 41.1798 74.2222 41.807 73.182C43.0824 71.0604 44.3303 68.9227 45.5759 66.7836C46.0702 65.9366 46.5678 65.0916 47.0666 64.2473C47.1527 64.0997 47.2388 63.9522 47.3274 63.8001C47.586 63.3576 47.8478 62.9171 48.1104 62.4769C48.2627 62.2189 48.4151 61.9609 48.572 61.6951C49.0825 60.9768 49.58 60.512 50.3039 60.0139C50.8283 59.9536 50.8283 59.9536 51.3467 60.045C51.5432 60.0762 51.7396 60.1073 51.9421 60.1394C52.3248 60.2178 52.7064 60.3021 53.086 60.3943C57.4328 61.421 60.9594 60.4857 65.0734 58.9799C66.5315 58.5204 67.9501 58.4719 69.4632 58.4731C69.6691 58.4729 69.8749 58.4728 70.087 58.4726C71.9899 58.4887 73.8285 58.7038 75.7043 59.0178C75.8565 58.7828 76.0087 58.5479 76.1654 58.3058C78.044 55.5596 81.3616 55.3485 84.1283 56.8817ZM50.802 66.4885C50.5012 66.9436 50.2133 67.4073 49.9304 67.8737C49.8428 68.0178 49.7552 68.1619 49.6649 68.3103C49.3789 68.7815 49.0943 69.2536 48.8098 69.7258C48.6148 70.0481 48.4199 70.3704 48.2249 70.6926C47.04 72.6555 45.8843 74.6313 44.7768 76.6391C44.2356 77.6102 43.6643 78.5604 43.0813 79.5068C42.8125 79.8891 42.8125 79.8891 42.8332 80.1848C48.1748 80.1848 53.5163 80.1848 59.0198 80.1848C58.6336 79.2195 58.25 78.4321 57.7241 77.5487C57.5636 77.2783 57.4031 77.008 57.2378 76.7294C57.064 76.4389 56.8902 76.1485 56.7163 75.858C56.5384 75.5596 56.3605 75.2612 56.1827 74.9628C55.6359 74.0462 55.0867 73.1311 54.5373 72.2161C54.3625 71.9244 54.1876 71.6327 54.0127 71.3409C53.53 70.5372 53.0458 69.7344 52.5607 68.9321C52.3379 68.5618 52.3379 68.5618 52.1106 68.1841C51.9744 67.96 51.8382 67.7359 51.6979 67.505C51.5785 67.3079 51.4591 67.1107 51.3361 66.9076C51.242 66.7693 51.1479 66.631 51.051 66.4885C50.9688 66.4885 50.8867 66.4885 50.802 66.4885ZM110.568 66.4885C109.378 68.0765 108.412 69.8301 107.424 71.5468C106.136 73.7724 104.829 75.9841 103.484 78.1754C103.367 78.3679 103.251 78.5604 103.13 78.7588C103.027 78.9268 102.924 79.0948 102.818 79.2679C102.56 79.6815 102.56 79.6815 102.599 80.1848C107.94 80.1848 113.282 80.1848 118.785 80.1848C115.288 74.0475 115.288 74.0475 111.719 67.9515C111.629 67.7984 111.539 67.6453 111.446 67.4876C111.243 67.1501 111.031 66.8184 110.817 66.4885C110.734 66.4885 110.652 66.4885 110.568 66.4885Z" fill="white"/>
<path d="M64.1403 115.015C64.4417 115.014 64.743 115.013 65.0535 115.011C65.3905 115.012 65.7275 115.012 66.0645 115.012C66.417 115.011 66.7696 115.01 67.1221 115.009C68.0821 115.007 69.0422 115.007 70.0023 115.006C70.8025 115.006 71.6027 115.005 72.4029 115.004C74.2901 115.002 76.1774 115.002 78.0646 115.002C80.0143 115.002 81.9639 114.999 83.9136 114.995C85.5849 114.992 87.2563 114.991 88.9277 114.991C89.927 114.991 90.9263 114.99 91.9257 114.988C92.8653 114.985 93.8049 114.985 94.7445 114.987C95.09 114.987 95.4356 114.987 95.7811 114.985C96.2515 114.983 96.7218 114.985 97.1922 114.986C97.4558 114.986 97.7195 114.986 97.9911 114.986C98.6118 115.048 98.6118 115.048 99.1098 115.546C99.1703 116.307 99.1703 116.307 99.1672 117.275C99.1671 117.445 99.167 117.615 99.1668 117.79C99.1661 118.149 99.1641 118.509 99.161 118.868C99.1565 119.42 99.1559 119.972 99.156 120.524C99.1465 123.229 99.1465 123.229 98.8608 123.515C98.3949 123.539 97.9282 123.546 97.4617 123.546C97.006 123.547 97.006 123.547 96.5411 123.549C96.2013 123.548 95.8616 123.548 95.5218 123.547C95.1664 123.547 94.8111 123.548 94.4557 123.548C93.4879 123.549 92.5202 123.549 91.5524 123.548C90.5418 123.548 89.5312 123.548 88.5207 123.549C86.8233 123.549 85.1259 123.548 83.4285 123.547C81.4633 123.546 79.498 123.546 77.5328 123.548C75.8485 123.549 74.1643 123.549 72.48 123.548C71.4728 123.548 70.4655 123.548 69.4582 123.549C68.5115 123.549 67.5647 123.549 66.618 123.548C66.2695 123.547 65.9211 123.547 65.5726 123.548C65.0989 123.549 64.6252 123.548 64.1515 123.546C63.8857 123.546 63.62 123.546 63.3462 123.546C62.7524 123.515 62.7524 123.515 62.5034 123.266C62.4783 122.677 62.4686 122.096 62.4703 121.507C62.47 121.331 62.4698 121.155 62.4696 120.974C62.4694 120.601 62.4698 120.229 62.4709 119.856C62.4722 119.284 62.4709 118.712 62.4693 118.139C62.4695 117.778 62.4698 117.417 62.4703 117.056C62.4698 116.884 62.4693 116.711 62.4688 116.534C62.4763 114.998 62.6431 115.017 64.1403 115.015Z" fill="white"/>
</g>
</svg>
