<svg width="212" height="211" viewBox="0 0 212 211" fill="none" xmlns="http://www.w3.org/2000/svg">
<g opacity="0.15">
<path d="M25.1251 0.0241804C25.4706 0.01882 25.816 0.0134596 26.172 0.00793675C26.5473 0.0125222 26.9225 0.0171076 27.3092 0.0218319C27.7112 0.0186252 28.1131 0.0154186 28.5273 0.0121147C29.8755 0.00390937 31.2232 0.0104129 32.5714 0.0168762C33.5374 0.0140911 34.5034 0.0104314 35.4694 0.00596097C38.0942 -0.00342115 40.7189 0.000227982 43.3437 0.0067402C45.8104 0.0114117 48.277 0.00784881 50.7436 0.00483429C55.9268 -0.00102686 61.1099 0.0057116 66.293 0.0167573C70.7401 0.0259411 75.1871 0.024346 79.6342 0.0148688C84.7988 0.00386761 89.9634 -0.000462287 95.128 0.00584947C97.8618 0.00905694 100.596 0.00947368 103.329 0.00269111C105.899 -0.00323942 108.469 0.000858664 111.039 0.0127516C111.983 0.0154736 112.927 0.0146822 113.871 0.0101561C115.158 0.00455408 116.445 0.0115648 117.732 0.0218319C118.107 0.0172465 118.482 0.0126611 118.869 0.00793675C120.67 0.0358774 121.472 0.117505 122.966 1.19933C123.818 2.41161 124.023 2.9264 124.015 4.38048C124.02 4.98142 124.02 4.98142 124.024 5.59451C124.017 6.0292 124.009 6.4639 124.001 6.91177C124.002 7.3732 124.002 7.83463 124.002 8.31004C124.001 9.83398 123.985 11.3574 123.969 12.8813C123.965 13.9383 123.962 14.9953 123.96 16.0524C123.953 18.5495 123.936 21.0463 123.916 23.5433C123.893 26.3868 123.881 29.2302 123.871 32.0738C123.849 37.9215 123.813 43.769 123.767 49.6165C123.274 49.6188 123.274 49.6188 122.772 49.6211C119.665 49.6367 116.559 49.6601 113.452 49.6921C111.855 49.7083 110.258 49.7216 108.662 49.7279C107.118 49.7342 105.575 49.7484 104.031 49.7679C103.445 49.774 102.858 49.7773 102.272 49.7776C98.2557 49.7824 95.1012 50.014 91.9962 52.6999C91.7064 53.0391 91.4166 53.3782 91.118 53.7277C90.8878 53.9905 90.6577 54.2534 90.4206 54.5242C88.8776 56.9362 88.928 59.3861 88.9272 62.1456C88.9238 62.5791 88.9205 63.0126 88.9171 63.4592C88.907 64.9116 88.9028 66.3639 88.8987 67.8164C88.8929 68.8577 88.8867 69.8991 88.8803 70.9404C88.8624 74.0637 88.8518 77.187 88.8427 80.3103C88.8392 81.4868 88.8353 82.6634 88.8313 83.8399C88.8139 89.0273 88.799 94.2146 88.791 99.402C88.789 100.67 88.787 101.938 88.7849 103.206C88.7844 103.521 88.7839 103.837 88.7834 104.161C88.7747 109.272 88.7505 114.382 88.7199 119.493C88.6887 124.741 88.6715 129.99 88.668 135.239C88.6657 138.185 88.6572 141.131 88.6331 144.078C88.6104 146.847 88.6066 149.617 88.6158 152.387C88.6161 153.404 88.61 154.421 88.5971 155.438C88.5805 156.826 88.5867 158.212 88.5987 159.599C88.5833 160.205 88.5833 160.205 88.5676 160.823C88.6102 162.975 88.6102 162.975 89.8373 164.661C90.7907 165.293 91.7625 165.834 92.7711 166.373C93.4681 166.911 94.1616 167.453 94.8375 168.017C94.8378 167.671 94.8378 167.671 94.8382 167.319C94.8531 153.655 94.8764 139.992 94.911 126.328C94.9151 124.688 94.9192 123.048 94.9232 121.408C94.9244 120.918 94.9244 120.918 94.9257 120.419C94.9385 115.13 94.9455 109.841 94.9504 104.552C94.9555 99.1262 94.9669 93.7005 94.984 88.2749C94.9944 84.9261 94.9999 81.5773 94.9992 78.2285C94.9992 75.662 95.0079 73.0956 95.0198 70.5292C95.0233 69.4753 95.024 68.4214 95.0217 67.3676C95.019 65.9315 95.0263 64.4958 95.0363 63.0598C95.0331 62.6403 95.0299 62.2208 95.0266 61.7886C95.0488 59.9813 95.0722 58.9503 96.0391 57.384C97.5725 56.0035 98.8673 56.1343 100.844 56.1366C101.331 56.1348 101.331 56.1348 101.829 56.1329C102.924 56.1293 104.019 56.1287 105.113 56.1281C105.896 56.1262 106.679 56.1241 107.461 56.1219C109.592 56.1165 111.722 56.1139 113.853 56.1121C115.183 56.1109 116.513 56.1092 117.843 56.1073C122.002 56.1017 126.162 56.0977 130.321 56.0961C135.127 56.0943 139.933 56.0871 144.739 56.0752C148.45 56.0663 152.162 56.0621 155.873 56.0616C158.092 56.0612 160.31 56.0587 162.528 56.0514C164.615 56.0446 166.701 56.0437 168.788 56.0473C169.554 56.0477 170.32 56.0459 171.086 56.0418C172.131 56.0366 173.177 56.039 174.222 56.0433C174.526 56.04 174.829 56.0367 175.142 56.0332C176.956 56.0507 178.156 56.2548 179.559 57.4277C180.261 58.859 180.489 60.0076 180.488 61.5917C180.489 62.0097 180.491 62.4277 180.493 62.8583C180.49 63.3146 180.488 63.7709 180.485 64.241C180.486 64.9714 180.486 64.9714 180.487 65.7166C180.489 67.0666 180.486 68.4165 180.482 69.7666C180.478 71.223 180.479 72.6793 180.48 74.1357C180.481 76.6585 180.478 79.1813 180.473 81.7041C180.467 85.3516 180.464 88.9991 180.463 92.6467C180.462 98.5645 180.456 104.482 180.448 110.4C180.441 116.149 180.435 121.898 180.431 127.646C180.431 128.001 180.431 128.355 180.431 128.72C180.43 130.498 180.429 132.275 180.427 134.053C180.419 148.8 180.404 163.548 180.386 178.295C180.773 178.417 181.161 178.538 181.56 178.664C186.349 180.329 190.218 185.406 192.371 189.806C193.92 193.885 195.469 199.061 194.024 203.373C194.451 203.369 194.879 203.365 195.319 203.36C196.91 203.345 198.5 203.336 200.091 203.328C200.778 203.324 201.465 203.318 202.153 203.311C203.143 203.301 204.133 203.296 205.123 203.293C205.581 203.286 205.581 203.286 206.049 203.28C208.099 203.28 209.641 203.509 211.293 204.749C211.94 205.625 211.974 206.173 211.976 207.253C211.984 207.566 211.992 207.879 212 208.202C211.706 209.533 211.233 209.949 210.142 210.773C208.939 210.934 207.893 210.994 206.69 210.98C206.337 210.983 205.984 210.985 205.62 210.987C204.429 210.993 203.238 210.988 202.047 210.982C201.187 210.984 200.328 210.987 199.468 210.99C197.1 210.997 194.733 210.993 192.365 210.988C189.813 210.984 187.262 210.99 184.711 210.995C180 211.002 175.289 211.001 170.577 210.997C166.226 210.992 161.874 210.991 157.522 210.993C157.234 210.993 156.945 210.994 156.648 210.994C155.477 210.994 154.307 210.995 153.136 210.995C142.149 211 131.162 210.996 120.175 210.987C110.408 210.979 100.642 210.98 90.8758 210.988C79.9091 210.996 68.9424 211 57.9757 210.995C56.8071 210.994 55.6386 210.994 54.47 210.993C54.1822 210.993 53.8945 210.993 53.598 210.993C49.2484 210.991 44.8988 210.993 40.5491 210.997C35.6045 211.002 30.6599 211.001 25.7153 210.992C23.1907 210.988 20.6662 210.986 18.1415 210.991C15.833 210.996 13.5246 210.994 11.216 210.985C10.3784 210.983 9.5407 210.984 8.70305 210.988C7.56914 210.993 6.43572 210.988 5.30183 210.98C4.80779 210.986 4.80779 210.986 4.30378 210.992C2.83131 210.972 2.01031 210.894 0.821497 209.995C-0.0934126 208.726 -0.0346766 207.819 0.0355191 206.302C0.196956 205.429 0.196956 205.429 0.920191 204.401C2.35154 203.452 3.6264 203.322 5.32216 203.326C5.85565 203.327 5.85565 203.327 6.39993 203.327C6.78011 203.329 7.1603 203.331 7.552 203.333C8.14016 203.334 8.14016 203.334 8.7402 203.335C9.9908 203.337 11.2414 203.342 12.492 203.347C13.3406 203.35 14.1892 203.351 15.0378 203.353C17.1166 203.358 19.1953 203.365 21.2741 203.373C21.2733 202.949 21.2725 202.524 21.2717 202.086C21.2373 183.378 21.2054 164.67 21.1866 145.962C21.1863 145.679 21.186 145.396 21.1857 145.104C21.1796 138.951 21.1738 132.799 21.1686 126.646C21.166 123.629 21.1633 120.612 21.1606 117.595C21.1602 117.144 21.1602 117.144 21.1598 116.685C21.151 106.949 21.1354 97.2126 21.1164 87.4764C21.097 77.4733 21.0842 67.4701 21.08 57.467C21.0794 56.0549 21.0788 54.6429 21.078 53.2308C21.0779 52.9529 21.0778 52.6749 21.0776 52.3886C21.0752 47.9103 21.0656 43.4321 21.0533 38.9539C21.0412 34.4544 21.0367 29.955 21.0396 25.4556C21.0409 23.0165 21.0388 20.5776 21.0278 18.1386C21.0178 15.9077 21.0172 13.677 21.0243 11.4461C21.0252 10.6371 21.0225 9.82812 21.016 9.01916C21.0078 7.92285 21.0122 6.82729 21.0198 5.73099C21.0144 5.41386 21.009 5.09673 21.0034 4.77C21.0289 3.16257 21.2213 2.40733 22.2116 1.11477C23.338 0.284688 23.761 0.0257138 25.1251 0.0241804ZM36.7042 15.4122C35.2677 17.3693 35.4518 19.1195 35.5063 21.4809C35.5018 21.9089 35.4973 22.3368 35.4926 22.7777C35.4263 25.1287 35.4263 25.1287 36.517 27.116C37.5532 27.9587 38.1203 28.2061 39.4583 28.2386C41.0298 27.5479 41.717 26.9294 42.3512 25.3608C42.5208 24.0029 42.4853 22.6427 42.4804 21.2754C42.4871 20.9078 42.4937 20.5403 42.5006 20.1617C42.5021 18.1438 42.4644 16.704 41.1114 15.083C39.4633 14.2632 38.2146 14.3966 36.7042 15.4122ZM57.2292 16.3163C56.4568 17.8531 56.7039 19.6867 56.6868 21.3781C56.6748 21.769 56.6628 22.1598 56.6505 22.5625C56.6339 24.3821 56.6288 25.4623 57.5876 27.0486C58.6264 27.9665 59.145 28.2386 60.5354 28.2386C61.9763 27.572 62.537 27.1021 63.4284 25.7719C63.6287 24.2883 63.6005 22.7966 63.6092 21.3011C63.6228 20.8925 63.6364 20.4839 63.6504 20.0629C63.6712 17.5694 63.6712 17.5694 62.463 15.4282C61.4049 14.5907 61.4049 14.5907 60.0963 14.4406C58.6272 14.7204 58.1479 15.1655 57.2292 16.3163ZM78.3064 16.3163C77.7359 18.0189 77.8006 19.6204 77.7898 21.4038C77.7813 21.7536 77.7727 22.1034 77.764 22.4637C77.7515 24.4438 77.7987 25.8305 79.1329 27.4164C80.5162 28.1044 81.2397 28.3313 82.7491 27.956C83.794 27.4404 83.794 27.4404 84.5055 26.183C84.707 24.6309 84.6777 23.0703 84.6863 21.5066C84.6999 21.0784 84.7135 20.6502 84.7275 20.209C84.7571 17.6339 84.7571 17.6339 83.5401 15.4154C82.4799 14.5919 82.4799 14.5919 81.1735 14.4406C79.6964 14.722 79.2156 15.1439 78.3064 16.3163ZM100.055 15.3913C98.7333 17.2119 98.882 19.2262 98.8669 21.4038C98.8584 21.7091 98.8499 22.0143 98.8411 22.3288C98.8269 24.3316 99.1109 25.6748 100.21 27.4164C101.192 28.1655 101.662 28.2486 102.896 28.1872C104.167 27.7449 104.745 27.2245 105.583 26.183C106.161 24.6028 106.072 22.9354 106.073 21.2754C106.081 20.8417 106.081 20.8417 106.089 20.3993C106.095 18.3533 105.805 16.8699 104.679 15.16C103.116 14.1417 101.514 14.3217 100.055 15.3913ZM36.7058 36.3806C35.2663 38.3361 35.4518 40.0862 35.5063 42.4477C35.5018 42.8757 35.4973 43.3036 35.4926 43.7445C35.4281 46.09 35.4281 46.09 36.5041 48.0812C37.6633 49.0123 38.3834 49.2054 39.8716 49.2054C41.0069 48.4776 41.7443 47.9462 42.3512 46.7387C42.4504 45.3192 42.4278 43.896 42.4287 42.4734C42.4363 41.882 42.4363 41.882 42.4441 41.2786C42.4449 40.8981 42.4457 40.5176 42.4465 40.1256C42.449 39.6038 42.449 39.6038 42.4516 39.0715C42.3405 38.0016 42.1095 37.3624 41.5247 36.4609C39.7295 35.2704 38.5225 35.1545 36.7058 36.3806ZM57.2292 37.2831C56.4561 38.8213 56.7396 40.6781 56.7385 42.3706C56.7334 42.7649 56.7283 43.1592 56.7231 43.5654C56.7223 43.9459 56.7215 44.3265 56.7207 44.7185C56.719 45.0663 56.7173 45.4142 56.7156 45.7726C56.8253 46.8288 57.0845 47.4834 57.6425 48.3832C58.6833 49.1597 59.2246 49.2084 60.5354 49.154C61.9845 48.7336 62.4837 48.3058 63.4284 47.1498C63.7631 45.5981 63.6776 44.0312 63.6609 42.4477C63.6707 42.0214 63.6806 41.595 63.6907 41.1558C63.6879 38.5902 63.6879 38.5902 62.4598 36.3838C61.4027 35.5582 61.4027 35.5582 60.0963 35.4074C58.6272 35.6873 58.1479 36.1323 57.2292 37.2831ZM78.3064 37.2831C77.7359 38.9857 77.8006 40.5872 77.7898 42.3706C77.7813 42.7204 77.7727 43.0702 77.764 43.4305C77.7515 45.4172 77.8066 46.7864 79.1329 48.3832C80.2931 49.3277 80.2931 49.3277 81.5868 49.154C83.0566 48.7363 83.551 48.3204 84.5055 47.1498C84.8402 45.5981 84.7548 44.0312 84.738 42.4477C84.7479 42.0214 84.7577 41.595 84.7679 41.1558C84.7651 38.5902 84.7651 38.5902 83.5369 36.3838C82.4798 35.5582 82.4798 35.5582 81.1735 35.4074C79.6964 35.6888 79.2156 36.1107 78.3064 37.2831ZM36.5654 57.4277C35.3125 59.2972 35.5702 61.1373 35.558 63.3375C35.5444 63.7657 35.5308 64.1939 35.5168 64.635C35.4872 67.2102 35.4872 67.2102 36.7042 69.4287C37.7645 70.2522 37.7645 70.2522 39.0709 70.4035C40.54 70.1236 41.0193 69.6786 41.938 68.5278C42.7104 66.991 42.4633 65.1573 42.4804 63.4659C42.4984 62.8797 42.4984 62.8797 42.5167 62.2816C42.5333 60.471 42.5333 59.3795 41.5941 57.7938C40.004 56.4145 38.3073 56.19 36.5654 57.4277ZM57.6425 57.4277C56.8754 58.6701 56.7101 59.6161 56.7062 61.0635C56.7051 61.4403 56.704 61.8171 56.7029 62.2053C56.7061 62.5959 56.7093 62.9864 56.7126 63.3889C56.7094 63.7794 56.7062 64.17 56.7029 64.5724C56.704 64.9492 56.7051 65.326 56.7062 65.7142C56.7071 66.0568 56.708 66.3994 56.709 66.7524C56.8278 67.8112 57.0648 68.4556 57.6425 69.35C59.0965 70.3143 59.6501 70.4106 61.362 70.1722C62.5563 69.4557 62.5563 69.4557 63.4284 68.1167C63.7253 66.5267 63.6981 64.9757 63.6609 63.3632C63.6654 62.9352 63.6699 62.5073 63.6746 62.0664C63.738 59.7206 63.738 59.7206 62.6647 57.7265C61.074 56.4568 59.3177 56.1779 57.6425 57.4277ZM79.2104 57.3249C77.5087 59.0662 77.8036 61.0526 77.7898 63.3375C77.7813 63.6872 77.7727 64.037 77.764 64.3974C77.7514 66.398 77.8316 67.7224 79.1329 69.35C79.9056 70.2803 79.9056 70.2803 81.1218 70.3521C82.4753 70.2659 82.4753 70.2659 83.5401 69.4303C84.9774 67.4746 84.7926 65.7238 84.738 63.3632C84.7425 62.9352 84.7471 62.5073 84.7517 62.0664C84.8163 59.7209 84.8163 59.7209 83.7402 57.7297C82.1533 56.455 80.9567 56.2441 79.2104 57.3249ZM113.848 71.8167C113 73.5043 113.322 75.666 113.306 77.5209C113.294 77.974 113.282 78.4271 113.269 78.894C113.266 79.3301 113.263 79.7663 113.259 80.2156C113.253 80.6151 113.247 81.0146 113.241 81.4263C113.491 82.8195 113.972 83.2974 115.088 84.1501C116.535 84.4242 116.535 84.4242 117.981 84.1501C119.182 83.238 119.568 82.7032 120.047 81.2723C120.15 80.0665 120.143 78.8591 120.151 77.6494C120.159 77.3227 120.168 76.9959 120.177 76.6593C120.19 74.5978 119.958 73.1916 118.808 71.4056C116.907 70.1058 115.656 70.5864 113.848 71.8167ZM135.339 71.4056C134.086 73.2751 134.344 75.1152 134.331 77.3153C134.318 77.7435 134.304 78.1717 134.29 78.6129C134.26 81.1881 134.26 81.1881 135.477 83.4066C136.538 84.2301 136.538 84.2301 137.844 84.3814C139.313 84.1015 139.793 83.6565 140.711 82.5057C141.458 81.0196 141.219 79.2857 141.228 77.6494C141.236 77.2781 141.245 76.9069 141.254 76.5244C141.266 74.4867 141.249 73.0458 139.885 71.4056C138.234 70.3282 137.005 70.3895 135.339 71.4056ZM156.416 71.8167C155.191 73.6444 155.421 75.3697 155.408 77.5209C155.395 77.9295 155.381 78.3381 155.367 78.7591C155.346 81.2525 155.346 81.2525 156.556 83.3921C157.611 84.2245 157.611 84.2245 158.895 84.4071C160.632 84.0471 161.139 83.5123 162.202 82.0945C162.498 80.5811 162.472 79.1093 162.434 77.5723C162.439 77.1674 162.443 76.7625 162.448 76.3454C162.429 74.5055 162.392 73.3641 161.424 71.7653C159.588 70.1486 158.305 70.3944 156.416 71.8167ZM37.4952 78.0862C36.1282 79.0604 36.1282 79.0604 35.6122 80.5566C35.5833 81.7974 35.5648 83.0374 35.558 84.2786C35.5444 84.7086 35.5308 85.1387 35.5168 85.5818C35.4861 88.168 35.4861 88.168 36.7042 90.3971C38.051 91.3047 38.6904 91.4428 40.2849 91.139C41.2365 90.3715 41.805 89.7591 42.3512 88.6724C42.4608 87.3302 42.4469 85.9844 42.4546 84.6383C42.4631 84.2671 42.4716 83.8958 42.4804 83.5134C42.4924 81.4862 42.4931 80.011 41.1114 78.3945C39.6344 77.6279 39.0342 77.3903 37.4952 78.0862ZM57.6425 78.8056C56.4445 80.5933 56.6797 82.2018 56.6868 84.3043C56.6801 84.6933 56.6735 85.0822 56.6666 85.483C56.6598 88.3124 56.6598 88.3124 58.0558 90.7279C59.2496 91.3217 60.0381 91.294 61.362 91.139C62.6094 90.2839 63.3253 89.6116 63.6204 88.0996C63.6921 86.9137 63.6898 85.7489 63.6609 84.5612C63.6654 84.1563 63.6699 83.7515 63.6746 83.3343C63.6558 81.4945 63.6186 80.3531 62.6503 78.7542C60.8152 77.1376 59.5318 77.3834 57.6425 78.8056ZM78.7197 78.8056C77.9935 79.984 77.7875 80.8736 77.7833 82.2471C77.7823 82.5849 77.7812 82.9228 77.7801 83.2709C77.7833 83.6204 77.7865 83.9699 77.7898 84.33C77.7866 84.6779 77.7834 85.0258 77.7801 85.3842C77.7858 87.1809 77.7918 88.7201 78.7197 90.3168C80.1737 91.2811 80.7273 91.3775 82.4392 91.139C83.6335 90.4225 83.6335 90.4225 84.5055 89.0835C84.8024 87.4935 84.7753 85.9425 84.738 84.33C84.7425 83.902 84.7471 83.4741 84.7517 83.0332C84.818 80.6822 84.818 80.6822 83.7273 78.6949C81.8759 77.1892 80.5613 77.3697 78.7197 78.8056ZM115.191 92.064C114.247 92.7644 114.247 92.7644 113.435 93.6057C113.235 95.2249 113.282 96.8578 113.28 98.4877C113.27 98.9408 113.26 99.3939 113.249 99.8608C113.248 100.297 113.246 100.733 113.244 101.182C113.241 101.582 113.238 101.981 113.234 102.393C113.493 103.783 113.973 104.265 115.088 105.117C116.535 105.391 116.535 105.391 117.981 105.117C119.182 104.205 119.568 103.67 120.047 102.239C120.15 101.033 120.143 99.8259 120.151 98.6162C120.159 98.2895 120.168 97.9627 120.177 97.6261C120.19 95.5713 119.979 94.14 118.808 92.3724C117.332 91.5747 116.739 91.3644 115.191 92.064ZM136.269 92.064C134.9 93.0371 134.9 93.0371 134.392 94.5344C134.372 95.7753 134.359 97.0154 134.357 98.2565C134.347 98.6865 134.337 99.1166 134.326 99.5597C134.314 102.079 134.314 102.079 135.258 104.375C136.161 105.24 136.161 105.24 137.612 105.348C139.251 105.086 139.72 104.762 140.711 103.472C141.458 101.986 141.219 100.252 141.228 98.6162C141.236 98.2449 141.245 97.8737 141.254 97.4912C141.266 95.4641 141.266 93.9889 139.885 92.3724C138.408 91.6058 137.807 91.3682 136.269 92.064ZM155.589 94.0168C155.338 95.5286 155.34 97.0097 155.357 98.5391C155.347 98.944 155.337 99.3489 155.327 99.766C155.331 101.738 155.348 102.74 156.559 104.356C157.611 105.192 157.611 105.192 158.895 105.374C160.632 105.014 161.139 104.479 162.202 103.061C162.498 101.548 162.472 100.076 162.434 98.5391C162.439 98.1342 162.443 97.7293 162.448 97.3122C162.429 95.4952 162.376 94.323 161.464 92.7225C160.505 91.9248 160.127 91.6804 158.895 91.7043C158.486 91.6964 158.486 91.6964 158.069 91.6883C156.685 92.1454 156.307 92.7567 155.589 94.0168ZM36.4846 99.705C35.3844 101.624 35.4979 103.357 35.5322 105.528C35.5258 105.933 35.5194 106.338 35.5128 106.755C35.5227 108.583 35.5601 109.741 36.4879 111.348C37.3831 112.234 37.3831 112.234 38.8384 112.311C40.3133 112.102 40.9178 111.926 41.938 110.873C42.5278 109.112 42.444 107.423 42.4546 105.579C42.4631 105.21 42.4716 104.841 42.4804 104.46C42.4924 102.433 42.4764 100.989 41.1114 99.3613C39.4787 98.5493 37.8958 98.531 36.4846 99.705ZM57.2292 100.184C56.6394 101.944 56.7232 103.633 56.7126 105.477C56.7041 105.846 56.6956 106.215 56.6868 106.596C56.6748 108.623 56.6908 110.067 58.0558 111.695C59.3488 112.338 60.352 112.252 61.7753 112.106C62.8602 111.203 63.3619 110.466 63.5856 109.066C63.6513 107.883 63.6538 106.714 63.635 105.528C63.6414 105.123 63.6478 104.718 63.6544 104.301C63.6445 102.473 63.6071 101.315 62.6793 99.7082C61.7842 98.8218 61.7842 98.8218 60.3288 98.7447C58.8539 98.9542 58.2494 99.1297 57.2292 100.184ZM78.3064 100.595C77.5594 102.081 77.7991 103.815 77.7898 105.451C77.7813 105.822 77.7727 106.193 77.764 106.576C77.7519 108.608 77.7623 110.063 79.1329 111.695C80.4107 112.33 81.4449 112.227 82.8524 112.106C83.9613 111.263 84.4437 110.769 84.7194 109.395C84.7213 109.001 84.7232 108.606 84.7251 108.2C84.7272 107.768 84.7294 107.335 84.7316 106.89C84.7252 106.44 84.7188 105.991 84.7122 105.528C84.7186 105.079 84.725 104.629 84.7316 104.166C84.7294 103.734 84.7273 103.301 84.7251 102.856C84.7232 102.462 84.7214 102.067 84.7194 101.661C84.444 100.288 83.9554 99.7974 82.8524 98.9502C80.6731 98.6405 79.6555 98.8396 78.3064 100.595ZM114.182 113.619C113.271 114.782 113.222 115.373 113.215 116.834C113.213 117.266 113.211 117.699 113.209 118.144C113.215 118.593 113.222 119.043 113.228 119.506C113.222 119.955 113.216 120.405 113.209 120.868C113.211 121.3 113.213 121.733 113.215 122.178C113.217 122.572 113.219 122.967 113.221 123.373C113.494 124.732 114.027 125.216 115.088 126.084C115.85 126.53 115.85 126.53 116.741 126.495C118.096 126.01 118.978 125.69 119.7 124.417C120.174 122.764 120.184 121.216 120.177 119.506C120.183 119.179 120.19 118.853 120.197 118.517C120.198 116.579 120.047 115.334 118.808 113.75C118.009 112.785 118.009 112.785 116.586 112.774C115.098 112.796 115.098 112.796 114.182 113.619ZM135.258 113.668C134.133 115.651 134.272 117.5 134.305 119.737C134.296 120.379 134.296 120.379 134.286 121.034C134.288 121.446 134.29 121.858 134.293 122.283C134.294 122.657 134.296 123.031 134.298 123.417C134.576 124.743 135.131 125.233 136.165 126.084C137.245 126.569 137.719 126.519 138.877 126.238C140.192 125.5 140.5 124.994 141.125 123.617C141.304 122.244 141.298 120.889 141.28 119.506C141.284 119.14 141.289 118.775 141.294 118.398C141.285 116.39 141.226 114.953 139.885 113.339C138.258 112.53 136.675 112.512 135.258 113.668ZM155.589 114.984C155.293 116.497 155.319 117.969 155.357 119.506C155.352 119.911 155.348 120.316 155.343 120.733C155.362 122.573 155.399 123.714 156.367 125.313C157.403 126.225 157.924 126.495 159.309 126.495C160.75 125.828 161.31 125.358 162.202 124.028C162.402 122.545 162.374 121.053 162.382 119.557C162.396 119.149 162.41 118.74 162.424 118.319C162.445 115.826 162.445 115.826 161.235 113.686C160.18 112.854 160.18 112.854 158.895 112.671C157.159 113.031 156.652 113.566 155.589 114.984ZM36.7042 120.657C35.2677 122.614 35.4518 124.365 35.5063 126.726C35.5018 127.154 35.4973 127.582 35.4926 128.023C35.4263 130.374 35.4263 130.374 36.517 132.361C37.5532 133.204 38.1203 133.451 39.4583 133.484C41.0298 132.793 41.717 132.175 42.3512 130.606C42.5208 129.248 42.4853 127.888 42.4804 126.521C42.4871 126.153 42.4937 125.785 42.5006 125.407C42.5021 123.389 42.4644 121.949 41.1114 120.328C39.4633 119.508 38.2146 119.642 36.7042 120.657ZM57.2292 121.561C56.4568 123.098 56.7039 124.932 56.6868 126.623C56.6748 127.014 56.6628 127.405 56.6505 127.808C56.6339 129.627 56.6288 130.708 57.5876 132.294C58.6264 133.212 59.145 133.484 60.5354 133.484C61.9763 132.817 62.537 132.347 63.4284 131.017C63.6287 129.534 63.6005 128.042 63.6092 126.546C63.6228 126.138 63.6364 125.729 63.6504 125.308C63.6712 122.815 63.6712 122.815 62.463 120.673C61.4049 119.836 61.4049 119.836 60.0963 119.686C58.6272 119.966 58.1479 120.411 57.2292 121.561ZM78.3064 121.561C77.7359 123.264 77.8006 124.866 77.7898 126.649C77.7813 126.999 77.7727 127.349 77.764 127.709C77.7515 129.689 77.7987 131.076 79.1329 132.662C80.5162 133.35 81.2397 133.577 82.7491 133.201C83.794 132.686 83.794 132.686 84.5055 131.428C84.707 129.876 84.6777 128.315 84.6863 126.752C84.6999 126.324 84.7135 125.895 84.7275 125.454C84.7571 122.879 84.7571 122.879 83.5401 120.661C82.4799 119.837 82.4799 119.837 81.1735 119.686C79.6964 119.967 79.2156 120.389 78.3064 121.561ZM113.435 135.539C113.129 137.187 113.166 138.802 113.202 140.473C113.198 140.922 113.193 141.372 113.189 141.835C113.111 144.274 113.111 144.274 114.213 146.346C115.25 147.181 115.82 147.429 117.154 147.462C118.389 146.948 119.038 146.56 119.686 145.384C120.179 143.731 120.184 142.188 120.177 140.473C120.183 140.146 120.19 139.82 120.197 139.483C120.198 137.545 120.047 136.301 118.808 134.717C118.036 133.783 118.036 133.783 116.819 133.741C115.086 133.944 114.579 134.211 113.435 135.539ZM135.479 134.637C134.04 136.592 134.225 138.342 134.28 140.704C134.275 141.132 134.271 141.56 134.266 142.001C134.2 144.352 134.2 144.352 135.29 146.339C136.326 147.182 136.894 147.429 138.232 147.462C139.802 146.771 140.492 146.153 141.125 144.584C141.25 143.659 141.25 143.659 141.234 142.682C141.235 142.324 141.236 141.966 141.238 141.597C141.234 141.226 141.231 140.855 141.228 140.473C141.231 140.102 141.234 139.731 141.238 139.349C141.236 138.811 141.236 138.811 141.234 138.263C141.233 137.938 141.232 137.612 141.231 137.277C141.11 136.239 140.862 135.597 140.298 134.717C138.503 133.527 137.296 133.411 135.479 134.637ZM155.589 135.95C155.293 137.464 155.319 138.936 155.357 140.473C155.352 140.878 155.348 141.282 155.343 141.7C155.362 143.531 155.402 144.681 156.354 146.278C157.512 147.285 158.186 147.493 159.722 147.462C160.857 146.734 161.595 146.202 162.202 144.995C162.334 143.516 162.336 142.034 162.357 140.55C162.372 140.139 162.388 139.729 162.403 139.306C162.442 136.802 162.442 136.802 161.236 134.651C160.18 133.821 160.18 133.821 158.895 133.638C157.159 133.998 156.652 134.533 155.589 135.95ZM36.7058 141.626C35.2663 143.581 35.4518 145.331 35.5063 147.693C35.5018 148.121 35.4973 148.549 35.4926 148.99C35.4281 151.335 35.4281 151.335 36.5041 153.326C37.6633 154.257 38.3834 154.451 39.8716 154.451C41.0069 153.723 41.7443 153.191 42.3512 151.984C42.4504 150.564 42.4278 149.141 42.4287 147.719C42.4363 147.127 42.4363 147.127 42.4441 146.524C42.4449 146.143 42.4457 145.763 42.4465 145.371C42.449 144.849 42.449 144.849 42.4516 144.317C42.3405 143.247 42.1095 142.608 41.5247 141.706C39.7295 140.516 38.5225 140.4 36.7058 141.626ZM57.2292 142.528C56.4561 144.066 56.7396 145.923 56.7385 147.616C56.7334 148.01 56.7283 148.404 56.7231 148.811C56.7223 149.191 56.7215 149.572 56.7207 149.964C56.719 150.312 56.7173 150.659 56.7156 151.018C56.8253 152.074 57.0845 152.729 57.6425 153.628C58.6833 154.405 59.2246 154.454 60.5354 154.399C61.9845 153.979 62.4837 153.551 63.4284 152.395C63.7631 150.843 63.6776 149.276 63.6609 147.693C63.6707 147.267 63.6806 146.84 63.6907 146.401C63.6879 143.835 63.6879 143.835 62.4598 141.629C61.4027 140.803 61.4027 140.803 60.0963 140.653C58.6272 140.932 58.1479 141.377 57.2292 142.528ZM78.3064 142.528C77.7359 144.231 77.8006 145.832 77.7898 147.616C77.7813 147.966 77.7727 148.315 77.764 148.676C77.7515 150.662 77.8066 152.032 79.1329 153.628C80.2931 154.573 80.2931 154.573 81.5868 154.399C83.0566 153.981 83.551 153.566 84.5055 152.395C84.8402 150.843 84.7548 149.276 84.738 147.693C84.7479 147.267 84.7577 146.84 84.7679 146.401C84.7651 143.835 84.7651 143.835 83.5369 141.629C82.4798 140.803 82.4798 140.803 81.1735 140.653C79.6964 140.934 79.2156 141.356 78.3064 142.528ZM113.435 156.917C113.126 158.498 113.146 160.039 113.177 161.645C113.169 162.07 113.161 162.494 113.152 162.931C113.165 164.941 113.189 166.032 114.391 167.696C115.487 168.566 115.487 168.566 116.999 168.428C118.604 167.971 118.604 167.971 119.634 166.784C120.145 165.095 120.123 163.421 120.125 161.671C120.132 161.208 120.132 161.208 120.14 160.735C120.145 159.008 120.053 157.657 119.221 156.095C118.34 155.218 117.781 154.905 116.56 154.656C114.924 154.974 114.431 155.589 113.435 156.917ZM134.512 156.917C134.203 158.498 134.224 160.039 134.254 161.645C134.246 162.07 134.238 162.494 134.23 162.931C134.243 164.946 134.256 166.027 135.482 167.682C136.538 168.509 136.538 168.509 137.844 168.66C139.321 168.378 139.802 167.956 140.711 166.784C141.282 165.081 141.217 163.48 141.228 161.696C141.236 161.347 141.245 160.997 141.254 160.637C141.266 158.65 141.211 157.281 139.885 155.684C137.513 154.111 136.169 154.702 134.512 156.917ZM156.416 155.684C155.644 156.923 155.483 157.874 155.479 159.32C155.478 159.697 155.477 160.073 155.476 160.462C155.479 160.852 155.483 161.243 155.486 161.645C155.483 162.036 155.48 162.426 155.476 162.829C155.477 163.205 155.478 163.582 155.479 163.97C155.48 164.313 155.481 164.656 155.482 165.009C155.601 166.067 155.838 166.712 156.416 167.606C157.859 168.563 158.438 168.635 160.135 168.428C161.087 167.661 161.655 167.049 162.202 165.962C162.301 164.542 162.278 163.119 162.279 161.696C162.287 161.105 162.287 161.105 162.295 160.502C162.295 160.121 162.296 159.741 162.297 159.349C162.299 158.827 162.299 158.827 162.302 158.295C162.192 157.237 161.938 156.582 161.375 155.684C159.696 154.57 158.095 154.57 156.416 155.684ZM36.5654 162.673C35.3125 164.542 35.5702 166.383 35.558 168.583C35.5444 169.011 35.5308 169.439 35.5168 169.88C35.4872 172.455 35.4872 172.455 36.7042 174.674C37.7645 175.497 37.7645 175.497 39.0709 175.649C40.54 175.369 41.0193 174.924 41.938 173.773C42.7104 172.236 42.4633 170.402 42.4804 168.711C42.4984 168.125 42.4984 168.125 42.5167 167.527C42.5333 165.716 42.5333 164.625 41.5941 163.039C40.004 161.66 38.3073 161.435 36.5654 162.673ZM57.6425 162.673C56.8767 163.912 56.7166 164.833 56.7352 166.277C56.7379 166.642 56.7406 167.008 56.7433 167.385C56.7502 167.763 56.7572 168.141 56.7643 168.531C56.768 168.916 56.7718 169.301 56.7756 169.697C56.7853 170.645 56.7989 171.592 56.816 172.54C57.9745 171.405 59.0936 170.272 60.1222 169.019C60.9069 168.083 61.5472 167.47 62.5502 166.733C63.5179 166.035 63.5179 166.035 63.6609 164.934C63.3506 163.562 62.9095 163.093 61.7753 162.262C60.138 161.787 59.0436 161.628 57.6425 162.673ZM67.1479 172.54C66.7217 172.836 66.2955 173.133 65.8564 173.439C61.8029 176.932 60.5303 181.945 60.0076 187.002C59.7089 188.162 59.7089 188.162 59.0486 188.902C57.7257 189.559 56.403 189.735 54.9562 189.935C50.2526 190.704 45.8832 192.612 42.9098 196.439C40.6657 199.645 40.6657 199.645 39.8716 203.373C64.2839 203.373 88.6962 203.373 113.848 203.373C113.712 202.423 113.575 201.474 113.435 200.495C112.901 193.446 114.143 187.713 118.756 182.149C119.046 181.827 119.336 181.505 119.634 181.173C116.299 179.253 113.09 179.018 109.333 179.771C105.936 180.808 103.569 183.002 101.216 185.583C100.184 186.495 99.0634 186.448 97.7304 186.517C96.8005 186.338 96.8005 186.338 96.0773 185.695C95.4463 184.257 94.966 182.829 94.5098 181.329C93.0534 176.869 90.2141 173.33 86.1586 170.895C79.661 167.979 72.8945 168.011 67.1479 172.54ZM36.5654 184.051C35.6537 184.785 35.6537 184.785 35.645 185.759C35.6493 186.116 35.6536 186.474 35.6581 186.842C35.6608 187.229 35.6634 187.616 35.6662 188.014C35.6731 188.419 35.68 188.824 35.6872 189.241C35.6909 189.649 35.6946 190.057 35.6985 190.478C35.7082 191.487 35.7218 192.497 35.7388 193.506C36.8253 192.442 37.8498 191.396 38.8126 190.217C39.6483 189.244 40.2575 188.68 41.2664 187.956C41.6244 187.617 41.9824 187.278 42.3512 186.929C42.3787 185.564 42.1983 184.837 41.4214 183.717C39.5329 182.442 38.3418 182.761 36.5654 184.051ZM157.078 187.841C154.642 190.384 154.642 190.384 153.523 193.506C149.855 194.222 149.855 194.222 148.254 193.172C147.477 192.078 146.807 190.99 146.136 189.832C144.1 186.355 141.201 184.487 137.405 183.229C132.458 182.778 128.945 183.37 124.866 186.418C122.16 188.814 120.721 191.822 120.278 195.384C120.165 198.745 120.634 200.061 122.114 203.373C143.389 203.373 164.665 203.373 186.585 203.373C187.113 197.601 186.338 193.215 182.607 188.727C180.858 186.851 178.958 185.602 176.666 184.462C176.395 184.327 176.123 184.192 175.843 184.052C169.511 181.321 162.03 183.278 157.078 187.841Z" fill="white"/>
</g>
</svg>
