<svg width="163" height="214" viewBox="0 0 163 214" fill="none" xmlns="http://www.w3.org/2000/svg">
<g opacity="0.15">
<path d="M131.836 213.131V140.855H31.3914V213.131H131.836Z" fill="white"/>
<path d="M19.2775 87.7756C14.9165 87.9762 12.4653 87.9762 10.0425 88.2053C1.23511 89.0647 -2.09991 93.9346 1.32045 102.271C4.70773 110.985 8.79736 119.406 13.5483 127.451C14.7977 129.241 16.4127 130.741 18.2855 131.853C20.1583 132.964 22.2457 133.661 24.408 133.897C62.488 134.355 100.568 134.154 138.648 134.154H139.731C148.083 133.41 166.41 98.9765 161.108 92.7888C158.629 89.9241 153.071 88.4632 148.881 88.4345C111.143 88.0908 73.4331 88.234 35.7236 88.234H24.3224C19.2774 69.4991 21.4721 63.0823 35.7236 51.9387C36.5095 51.3002 37.143 50.4926 37.5771 49.5754C38.0112 48.6582 38.2348 47.6548 38.2319 46.6391C37.9753 45.1209 35.3816 42.7432 34.156 42.9151C31.9585 43.5182 30.017 44.8258 28.6264 46.6391C18.3653 58.0405 17.0257 71.9341 19.2775 87.7756Z" fill="white"/>
<path d="M38.0029 81.557H123.084C126.106 61.8768 121.061 51.3635 104.928 44.3164C84.2347 62.8794 75.6267 62.9367 58.2114 44.6029C43.1048 49.1863 36.9197 60.4158 38.0029 81.557Z" fill="white"/>
<path d="M57.7021 25.5548C58.6997 40.1646 70.4428 53.4852 81.8726 52.9696C94.4139 52.4253 105.302 37.5291 104.475 22.0886C104.365 19.012 103.638 15.9894 102.34 13.2012C101.041 10.413 99.1967 7.91633 96.9168 5.86026C94.637 3.8042 91.9683 2.23088 89.0702 1.23421C86.172 0.237546 83.1037 -0.162042 80.0485 0.059321C76.9043 0.226099 73.8247 1.02202 70.9905 2.40039C68.1563 3.77876 65.6245 5.71185 63.5432 8.08639C61.462 10.4609 59.8733 13.2291 58.8703 16.2287C57.8672 19.2283 57.4701 22.3989 57.7021 25.5548Z" fill="white"/>
</g>
</svg>
