<svg width="235" height="235" viewBox="0 0 235 235" fill="none" xmlns="http://www.w3.org/2000/svg">
<g opacity="0.15">
<g clip-path="url(#clip0_8387_61352)">
<g clip-path="url(#clip1_8387_61352)">
<path d="M23.1275 57.9589C23.4526 57.9573 23.7777 57.9556 24.1126 57.954C25.2018 57.9496 26.2908 57.9519 27.3799 57.9542C28.1688 57.9524 28.9576 57.9503 29.7465 57.9478C31.9142 57.9421 34.0818 57.9422 36.2495 57.9433C38.5874 57.9435 40.9252 57.9383 43.2631 57.9339C47.8433 57.9261 52.4235 57.9236 57.0038 57.923C60.7265 57.9226 64.4493 57.9207 68.172 57.9177C78.7251 57.9095 89.2781 57.9052 99.8311 57.9059C100.4 57.9059 100.969 57.906 101.555 57.906C102.125 57.906 102.695 57.9061 103.282 57.9061C112.515 57.9065 121.749 57.8976 130.983 57.8844C140.462 57.871 149.942 57.8646 159.422 57.8654C164.744 57.8657 170.067 57.8631 175.39 57.8531C179.921 57.8446 184.453 57.8425 188.985 57.8489C191.297 57.8519 193.609 57.852 195.921 57.8439C198.038 57.8365 200.155 57.8378 202.272 57.846C203.037 57.8474 203.803 57.8457 204.568 57.8405C208.496 57.8156 211.962 57.8171 215.393 59.9462C215.718 60.1441 216.043 60.3419 216.378 60.5458C227.18 67.4882 231.055 84.7902 233.599 96.3564C236.072 107.918 236.072 107.918 233.599 112.227C231.048 115.883 228.139 117.518 223.796 118.296C212.847 119.413 201.765 119.692 190.77 119.988C190.372 119.999 189.974 120.01 189.564 120.022C153.73 120.993 153.73 120.993 142.346 110.683C137.652 106.154 133.627 100.752 130.336 95.1321C128.438 91.8987 127.049 90.5416 123.385 89.557C120.229 88.8335 116.954 89.2562 114.099 90.7548C112.68 91.7941 111.435 92.9699 110.189 94.2088C109.283 95.1015 108.359 95.9739 107.436 96.8487C106.719 97.5396 106.003 98.2313 105.288 98.9237C104.943 99.2502 104.599 99.5768 104.244 99.9132C101.413 102.701 99.5071 105.72 99.1374 109.771C99.1879 112.022 99.6508 114.228 100.095 116.429C96.0281 118.812 91.9455 118.553 87.3845 118.523C86.5215 118.524 85.6585 118.525 84.7955 118.528C82.4605 118.532 80.1257 118.525 77.7908 118.516C75.3425 118.508 72.8942 118.509 70.4459 118.51C66.3352 118.509 62.2245 118.501 58.1137 118.488C53.3671 118.473 48.6206 118.468 43.8739 118.469C38.8119 118.47 33.75 118.463 28.688 118.455C27.2332 118.453 25.7783 118.452 24.3235 118.452C22.0338 118.451 19.7441 118.445 17.4544 118.436C16.6161 118.433 15.7779 118.432 14.9396 118.432C3.32518 118.437 3.32518 118.437 -1.08903 114.248C-3.89968 111.172 -4.178 108.326 -4.00104 104.292C-3.82165 102.681 -3.54605 101.099 -3.24249 99.5072C-3.11771 98.8448 -3.11771 98.8448 -2.99041 98.1691C-0.385633 84.8389 3.96258 67.7063 15.8579 59.638C18.2709 58.3222 20.3946 57.962 23.1275 57.9589Z" fill="white"/>
<path d="M123.109 96.4013C124.772 97.5693 126.147 98.9338 127.577 100.373C127.89 100.684 128.203 100.996 128.526 101.317C129.557 102.343 130.584 103.374 131.611 104.404C132.328 105.12 133.044 105.835 133.761 106.551C135.261 108.05 136.759 109.55 138.256 111.051C140.176 112.976 142.1 114.897 144.025 116.817C145.505 118.293 146.982 119.772 148.459 121.251C149.168 121.96 149.877 122.669 150.587 123.377C151.578 124.365 152.566 125.357 153.554 126.35C153.848 126.642 154.142 126.934 154.445 127.235C154.714 127.507 154.983 127.778 155.26 128.058C155.494 128.292 155.727 128.526 155.968 128.767C157.182 130.215 157.681 131.463 157.542 133.347C157.273 135.093 156.817 136.027 155.624 137.324C155.33 137.645 155.035 137.967 154.732 138.298C153.143 139.967 151.533 141.612 149.898 143.237C149.565 143.573 149.231 143.908 148.887 144.254C148.568 144.573 148.249 144.891 147.92 145.219C147.633 145.506 147.345 145.793 147.05 146.088C145.508 147.504 143.967 147.475 141.948 147.455C139.713 147.057 138.502 145.544 136.974 143.967C136.279 143.348 135.579 142.735 134.873 142.129C134.329 141.652 133.784 141.176 133.24 140.699C133.211 141.248 133.182 141.797 133.152 142.362C132.544 147.676 130.299 152.467 127.713 157.072C127.04 158.344 127.04 158.344 127.449 159.295C128.334 160.658 129.434 161.756 130.585 162.891C130.841 163.147 131.097 163.403 131.36 163.666C132.217 164.523 133.077 165.376 133.938 166.229C134.553 166.842 135.168 167.456 135.783 168.069C137.107 169.391 138.432 170.711 139.759 172.029C141.856 174.114 143.95 176.202 146.043 178.29C150.486 182.723 154.933 187.152 159.38 191.58C164.181 196.361 168.982 201.142 173.777 205.928C175.859 208.004 177.943 210.079 180.028 212.152C181.324 213.441 182.618 214.732 183.912 216.023C184.512 216.622 185.114 217.221 185.717 217.818C186.538 218.633 187.357 219.45 188.175 220.269C188.415 220.505 188.655 220.742 188.902 220.986C190.053 222.143 191.032 223.172 191.589 224.723C191.441 228.164 189.208 229.832 186.892 232.133C186.308 232.749 186.308 232.749 185.711 233.377C185.132 233.958 185.132 233.958 184.542 234.551C184.193 234.905 183.843 235.258 183.484 235.623C181.842 236.65 180.387 236.732 178.519 236.393C177.365 235.6 176.572 234.937 175.624 233.947C175.358 233.684 175.092 233.421 174.817 233.15C173.93 232.268 173.056 231.374 172.181 230.479C171.547 229.844 170.912 229.209 170.276 228.575C168.553 226.853 166.842 225.12 165.132 223.385C163.344 221.573 161.544 219.771 159.746 217.968C156.343 214.554 152.949 211.13 149.559 207.702C145.699 203.8 141.828 199.909 137.956 196.018C129.993 188.015 122.042 179.999 114.101 171.975C113.847 172.097 113.594 172.218 113.333 172.344C112.172 172.901 111.01 173.456 109.848 174.011C109.449 174.203 109.051 174.395 108.64 174.592C105.822 175.936 103.031 177.037 100.009 177.839C99.6041 177.953 99.1989 178.068 98.7813 178.186C97.8214 178.457 96.8589 178.718 95.8958 178.977C96.2556 179.331 96.6154 179.685 96.9862 180.051C97.4591 180.519 97.932 180.988 98.4048 181.456C98.6419 181.69 98.8789 181.923 99.1232 182.163C101.276 184.302 102.277 185.697 102.431 188.779C101.524 192.038 99.3026 194.091 96.9418 196.43C96.2763 197.093 95.6243 197.767 94.9722 198.443C90.85 202.571 90.85 202.571 87.4934 202.783C84.4469 202.251 82.9534 200.909 80.8702 198.781C80.5525 198.466 80.2348 198.151 79.9075 197.826C78.8631 196.787 77.8273 195.74 76.7917 194.693C76.0664 193.967 75.3407 193.241 74.6146 192.516C73.0961 190.996 71.5816 189.473 70.07 187.947C68.1326 185.991 66.187 184.043 64.2386 182.098C62.7402 180.601 61.2453 179.101 59.7516 177.599C59.0354 176.88 58.3183 176.161 57.6003 175.443C56.5979 174.44 55.6002 173.433 54.6037 172.424C54.3067 172.128 54.0096 171.832 53.7036 171.527C51.8452 169.633 50.7857 168.166 50.4414 165.469C50.9029 161.7 54.6036 158.98 57.1516 156.454C57.5728 156.029 57.994 155.604 58.428 155.166C58.8348 154.761 59.2415 154.355 59.6606 153.937C60.2148 153.385 60.2148 153.385 60.7802 152.821C62.011 151.733 63.0125 151.041 64.6568 150.865C67.8801 151.102 69.3924 152.482 71.6223 154.703C72.2401 155.243 72.8622 155.779 73.4895 156.308C73.9516 156.702 74.4138 157.097 74.8899 157.504C74.9422 156.965 74.9946 156.427 75.0485 155.872C75.3087 153.813 75.8507 151.954 76.5529 150.006C76.6754 149.665 76.7979 149.324 76.9242 148.972C78.9612 143.496 81.6789 138.508 85.6262 134.164C86.0047 133.742 86.3832 133.32 86.7732 132.886C93.5211 125.743 102.6 121.479 112.234 119.693C111.839 119.231 111.444 118.769 111.037 118.293C110.658 117.846 110.658 117.846 110.272 117.39C109.706 116.74 109.127 116.102 108.536 115.476C107.257 114.105 106.292 113.035 105.64 111.262C105.771 108.182 107.311 106.176 109.433 104.074C109.656 103.852 109.878 103.629 110.108 103.401C110.575 102.936 111.044 102.474 111.515 102.015C112.237 101.31 112.95 100.599 113.663 99.8855C119.118 94.4859 119.118 94.4859 123.109 96.4013Z" fill="white"/>
<path d="M0.666857 123.43C1.14305 123.528 1.61925 123.626 2.10988 123.728C2.74331 123.857 3.37676 123.986 4.01022 124.115C4.32305 124.18 4.63588 124.245 4.95819 124.311C7.41578 124.81 9.80592 125.074 12.3076 125.151C12.6768 125.167 13.0459 125.183 13.4263 125.199C14.3077 125.237 15.1894 125.268 16.0712 125.297C16.085 125.897 16.085 125.897 16.0992 126.508C16.136 128.014 16.1765 129.519 16.2193 131.024C16.237 131.671 16.2533 132.318 16.2681 132.966C16.4237 139.701 16.9696 146.162 21.7602 151.379C25.5782 154.826 30.4352 156.861 35.6037 156.687C41.1323 156.056 45.76 153.64 49.3268 149.366C54.2603 142.174 53.1307 133.822 53.4149 125.297C63.7358 125.297 74.0567 125.297 84.6903 125.297C81.8384 128.624 81.8384 128.624 80.3432 130.227C76.4276 134.714 73.6819 140.019 71.1532 145.369C70.8758 145.296 70.5984 145.224 70.3126 145.149C65.954 144.125 62.2683 144.121 58.3412 146.403C56.1206 147.956 54.242 149.868 52.3479 151.794C51.6348 152.517 50.9123 153.23 50.1884 153.942C46.6931 157.428 44.4377 160.454 43.9331 165.5C44.2478 169.402 45.5059 172.152 48.1933 175.009C48.4178 175.249 48.6423 175.488 48.8735 175.735C51.6819 178.715 54.5687 181.619 57.4593 184.518C57.7532 184.813 58.0471 185.109 58.3499 185.413C59.9001 186.97 61.4516 188.526 63.0043 190.08C64.5962 191.675 66.1837 193.274 67.7702 194.873C69.0037 196.116 70.2404 197.355 71.4779 198.593C72.0645 199.181 72.65 199.77 73.2342 200.361C79.5527 206.97 79.5527 206.97 88.091 209.333C93.0936 208.998 96.1501 206.146 99.6278 202.785C99.8795 202.546 100.131 202.306 100.39 202.059C106.081 196.995 106.081 196.995 108.559 190.114C108.558 189.549 108.557 188.984 108.555 188.402C108.556 187.841 108.558 187.279 108.559 186.701C108.502 185.172 108.32 183.746 108.03 182.246C108.61 181.918 109.194 181.599 109.781 181.283C110.268 181.015 110.268 181.015 110.765 180.742C111.978 180.301 112.428 180.427 113.632 180.846C114.35 181.389 114.35 181.389 115.044 182.083C115.309 182.345 115.575 182.608 115.849 182.878C116.135 183.167 116.42 183.457 116.715 183.755C117.02 184.058 117.325 184.362 117.64 184.675C118.649 185.68 119.652 186.69 120.656 187.7C121.354 188.398 122.052 189.097 122.751 189.795C124.215 191.258 125.676 192.724 127.135 194.192C129.009 196.077 130.889 197.957 132.77 199.835C134.213 201.276 135.653 202.72 137.093 204.164C137.785 204.858 138.478 205.552 139.172 206.245C140.139 207.211 141.103 208.181 142.066 209.152C142.5 209.584 142.5 209.584 142.943 210.025C144.907 212.014 144.907 212.014 144.907 213.055C127.912 213.087 110.916 213.111 93.9204 213.126C91.9134 213.128 89.9064 213.13 87.8994 213.132C87.4999 213.132 87.1003 213.132 86.6886 213.133C80.2212 213.139 73.7538 213.15 67.2863 213.163C60.649 213.176 54.0116 213.184 47.3742 213.186C43.2794 213.188 39.1846 213.194 35.0898 213.206C32.2809 213.213 29.472 213.215 26.6631 213.214C25.0431 213.213 23.4232 213.214 21.8032 213.222C20.0446 213.229 18.2862 213.227 16.5276 213.223C16.0186 213.227 15.5096 213.231 14.9851 213.235C11.0023 213.212 7.42825 212.526 4.20066 210.064C1.56487 207.389 0.608062 204.155 0.610722 200.502C0.610324 200.173 0.609925 199.844 0.609514 199.505C0.608744 198.4 0.611315 197.295 0.613864 196.189C0.613995 195.398 0.613921 194.607 0.613657 193.816C0.613523 191.665 0.616272 189.515 0.619526 187.364C0.62244 185.118 0.622718 182.871 0.623273 180.624C0.624725 176.369 0.628557 172.114 0.633239 167.859C0.638452 163.015 0.641022 158.171 0.643366 153.326C0.648248 143.361 0.656461 133.395 0.666857 123.43Z" fill="white"/>
<path d="M230.332 123.43C230.376 133.826 230.409 144.221 230.429 154.617C230.439 159.444 230.452 164.271 230.473 169.099C230.492 173.307 230.504 177.515 230.508 181.723C230.511 183.951 230.516 186.178 230.53 188.405C230.543 190.504 230.546 192.602 230.544 194.701C230.544 195.469 230.548 196.237 230.555 197.006C230.596 201.648 230.475 205.463 227.415 209.204C225.077 211.117 223.053 212.503 220.063 213.055C219.655 213.134 219.247 213.212 218.827 213.294C208.365 215.193 195.187 217.039 185.834 210.829C177.269 204.788 170.157 196.612 163.185 188.862C160.167 185.516 157.048 182.27 153.924 179.023C149.33 174.241 144.763 169.428 140.309 164.515C139.831 163.989 139.351 163.465 138.868 162.944C138.211 162.233 137.564 161.515 136.919 160.794C136.373 160.193 136.373 160.193 135.817 159.58C135.106 158.439 135.106 158.439 135.18 157.222C135.663 155.848 136.287 154.588 136.973 153.305C137.397 153.382 137.82 153.459 138.257 153.538C142.469 154.109 146.379 154.301 150.043 151.904C151.708 150.609 153.203 149.176 154.711 147.703C155.267 147.182 155.822 146.661 156.378 146.14C160.327 142.384 163.617 138.854 164.193 133.203C164.022 131.044 163.384 129.331 162.589 127.33C162.18 126.23 162.18 126.23 162.18 125.297C167.264 125.297 172.347 125.297 177.584 125.297C177.759 132.007 177.759 132.007 177.808 134.094C177.998 140.463 178.771 146.476 183.274 151.379C187.091 154.826 191.949 156.861 197.117 156.687C202.646 156.056 207.273 153.64 210.84 149.366C213.69 145.211 214.46 140.869 214.609 135.918C214.624 135.459 214.624 135.459 214.638 134.99C214.669 134.025 214.696 133.06 214.724 132.095C214.744 131.435 214.765 130.775 214.785 130.115C214.835 128.509 214.882 126.903 214.928 125.297C215.724 125.271 215.724 125.271 216.536 125.244C221.11 125.061 225.901 123.43 230.332 123.43Z" fill="white"/>
<path d="M85.0222 36.536C85.5772 36.5326 86.1321 36.5293 86.7039 36.5259C87.3135 36.5246 87.9232 36.5234 88.5513 36.5221C89.1992 36.5191 89.8472 36.516 90.4951 36.5128C92.6238 36.503 94.7525 36.4981 96.8811 36.4935C97.6144 36.4916 98.3477 36.4896 99.0809 36.4877C102.526 36.4788 105.971 36.4722 109.417 36.4683C113.391 36.4637 117.366 36.4514 121.34 36.4326C124.414 36.4185 127.488 36.4116 130.561 36.41C132.396 36.4089 134.231 36.4048 136.066 36.393C137.793 36.3821 139.52 36.3802 141.248 36.385C142.181 36.3853 143.114 36.3764 144.047 36.3672C147.229 36.3856 149.361 36.4927 151.912 38.4719C155.249 42.7746 154.246 44.6349 154.246 51.0754C128.675 51.0754 103.104 51.0754 76.7578 51.0754C76.7578 42.673 76.7578 42.673 78.625 38.9387C80.6891 36.9753 82.226 36.5475 85.0222 36.536Z" fill="white"/>
<path d="M199.61 129.556C201.423 130.764 202.737 132.192 203.724 134.165C203.967 136.606 204.024 138.665 202.965 140.905C200.878 143.156 198.992 144.295 195.932 144.511C193.425 144.333 191.657 143.145 189.983 141.342C188.455 139.021 188.508 136.898 188.786 134.165C189.806 132.087 191.092 130.81 192.988 129.497C195.313 128.722 197.33 128.751 199.61 129.556Z" fill="white"/>
<path d="M38.0985 129.556C39.9117 130.764 41.2256 132.192 42.2121 134.165C42.4554 136.606 42.5121 138.665 41.4536 140.905C39.3666 143.156 37.4802 144.295 34.4206 144.511C31.9131 144.333 30.1451 143.145 28.4708 141.342C26.9437 139.021 26.9963 136.898 27.2746 134.165C28.2947 132.087 29.5803 130.81 31.4758 129.497C33.8008 128.722 35.8183 128.751 38.0985 129.556Z" fill="white"/>
</g>
</g>
</g>
<defs>
<clipPath id="clip0_8387_61352">
<rect width="235" height="235" fill="white"/>
</clipPath>
<clipPath id="clip1_8387_61352">
<rect width="239" height="239" fill="white" transform="translate(-4 17)"/>
</clipPath>
</defs>
</svg>
