<svg width="34" height="34" viewBox="0 0 34 34" fill="none" xmlns="http://www.w3.org/2000/svg">
<rect width="34" height="34" rx="17" fill="#B1976B"/>
<path d="M20.6191 18.7642L20.1563 19.225C20.1563 19.225 19.0548 20.3193 16.0493 17.3311C13.0438 14.3429 14.1453 13.2485 14.1453 13.2485L14.4362 12.9577C15.1553 12.2437 15.2234 11.0964 14.5959 10.2583L13.3144 8.54655C12.5373 7.50912 11.0371 7.37181 10.1471 8.25668L8.55032 9.84334C8.10992 10.2827 7.81496 10.8503 7.85056 11.4808C7.9421 13.095 8.67237 16.5663 12.7448 20.6163C17.0644 24.9105 21.1174 25.0813 22.7743 24.9267C23.2991 24.8779 23.7548 24.6114 24.1219 24.2453L25.5662 22.8092C26.5426 21.8399 26.268 20.1769 25.019 19.4985L23.0764 18.4418C22.2566 17.9973 21.2598 18.1275 20.6191 18.7642Z" fill="white"/>
</svg>
