<svg width="34" height="34" viewBox="0 0 34 34" fill="none" xmlns="http://www.w3.org/2000/svg">
<rect width="34" height="34" rx="17" fill="#B1976B"/>
<path fill-rule="evenodd" clip-rule="evenodd" d="M17.0017 8.04297C21.9492 8.04297 25.96 12.0538 25.96 17.0013C25.96 21.9488 21.9492 25.9596 17.0017 25.9596C15.4517 25.9596 13.9933 25.5655 12.7208 24.8721L8.77084 25.5346C8.67348 25.5509 8.57366 25.5438 8.47955 25.5141C8.38543 25.4843 8.29971 25.4327 8.22939 25.3634C8.15906 25.2942 8.10615 25.2092 8.07497 25.1156C8.04379 25.0219 8.03524 24.9222 8.05001 24.8246L8.71667 20.4163C8.27007 19.3333 8.04126 18.1728 8.04334 17.0013C8.04334 12.0538 12.0542 8.04297 17.0017 8.04297ZM13.6208 12.5846C13.0083 12.5846 12.5008 13.1013 12.5958 13.7396C12.7758 14.9363 13.3075 17.1413 14.8892 18.7346C16.5425 20.4005 18.9083 21.113 20.1892 21.3938C20.8525 21.5396 21.4183 21.0146 21.4183 20.3671V18.8471C21.4184 18.7966 21.4031 18.7473 21.3745 18.7057C21.346 18.664 21.3055 18.632 21.2583 18.6138L19.625 17.9863C19.5809 17.9694 19.533 17.9654 19.4867 17.9746L17.8392 18.2963C16.7767 17.7463 16.1333 17.1296 15.7475 16.2005L16.0575 14.5213C16.0658 14.4766 16.0618 14.4305 16.0458 14.388L15.4333 12.7471C15.4156 12.6996 15.3837 12.6585 15.342 12.6295C15.3003 12.6005 15.2508 12.5848 15.2 12.5846H13.6208Z" fill="white"/>
</svg>
