<svg width="34" height="34" viewBox="0 0 34 34" fill="none" xmlns="http://www.w3.org/2000/svg">
<rect width="34" height="34" rx="17" fill="#B1976B"/>
<path d="M25.0111 13.3852V10.4263C25.0111 10.276 24.9815 10.1272 24.9239 9.98835C24.8664 9.84951 24.782 9.72336 24.6757 9.61712L23.0577 7.99911C22.8432 7.78462 22.5522 7.66411 22.2489 7.66406H13.5688C13.2653 7.66406 12.9743 7.78462 12.7597 7.9992C12.5451 8.21378 12.4246 8.50482 12.4246 8.80829V24.8275C12.4246 25.131 12.5451 25.422 12.7597 25.6366C12.9743 25.8512 13.2653 25.9718 13.5688 25.9718H25.0111C25.3146 25.9718 25.6056 25.8512 25.8202 25.6366C26.0348 25.422 26.1553 25.131 26.1553 24.8275V14.5294C26.1553 14.226 26.0348 13.9349 25.8202 13.7204C25.6056 13.5058 25.3146 13.3852 25.0111 13.3852ZM18.1457 23.1112C18.1457 23.2629 18.0855 23.4084 17.9782 23.5157C17.8709 23.623 17.7254 23.6833 17.5736 23.6833H16.4294C16.2777 23.6833 16.1321 23.623 16.0248 23.5157C15.9175 23.4084 15.8573 23.2629 15.8573 23.1112V21.9669C15.8573 21.8152 15.9175 21.6697 16.0248 21.5624C16.1321 21.4551 16.2777 21.3948 16.4294 21.3948H17.5736C17.7254 21.3948 17.8709 21.4551 17.9782 21.5624C18.0855 21.6697 18.1457 21.8152 18.1457 21.9669V23.1112ZM18.1457 18.5343C18.1457 18.686 18.0855 18.8315 17.9782 18.9388C17.8709 19.0461 17.7254 19.1064 17.5736 19.1064H16.4294C16.2777 19.1064 16.1321 19.0461 16.0248 18.9388C15.9175 18.8315 15.8573 18.686 15.8573 18.5343V17.39C15.8573 17.2383 15.9175 17.0928 16.0248 16.9855C16.1321 16.8782 16.2777 16.8179 16.4294 16.8179H17.5736C17.7254 16.8179 17.8709 16.8782 17.9782 16.9855C18.0855 17.0928 18.1457 17.2383 18.1457 17.39V18.5343ZM22.7227 23.1112C22.7227 23.2629 22.6624 23.4084 22.5551 23.5157C22.4478 23.623 22.3023 23.6833 22.1505 23.6833H21.0063C20.8546 23.6833 20.7091 23.623 20.6018 23.5157C20.4945 23.4084 20.4342 23.2629 20.4342 23.1112V21.9669C20.4342 21.8152 20.4945 21.6697 20.6018 21.5624C20.7091 21.4551 20.8546 21.3948 21.0063 21.3948H22.1505C22.3023 21.3948 22.4478 21.4551 22.5551 21.5624C22.6624 21.6697 22.7227 21.8152 22.7227 21.9669V23.1112ZM22.7227 18.5343C22.7227 18.686 22.6624 18.8315 22.5551 18.9388C22.4478 19.0461 22.3023 19.1064 22.1505 19.1064H21.0063C20.8546 19.1064 20.7091 19.0461 20.6018 18.9388C20.4945 18.8315 20.4342 18.686 20.4342 18.5343V17.39C20.4342 17.2383 20.4945 17.0928 20.6018 16.9855C20.7091 16.8782 20.8546 16.8179 21.0063 16.8179H22.1505C22.3023 16.8179 22.4478 16.8782 22.5551 16.9855C22.6624 17.0928 22.7227 17.2383 22.7227 17.39V18.5343ZM22.7227 14.5294H14.713V9.95252H20.4342V11.6689C20.4342 11.8206 20.4945 11.9661 20.6018 12.0734C20.7091 12.1807 20.8546 12.241 21.0063 12.241H22.7227V14.5294ZM10.1361 12.241H8.99189C8.68842 12.241 8.39738 12.3615 8.18279 12.5761C7.96821 12.7907 7.84766 13.0817 7.84766 13.3852V24.8275C7.84766 25.131 7.96821 25.422 8.18279 25.6366C8.39738 25.8512 8.68842 25.9718 8.99189 25.9718H10.1361C10.4396 25.9718 10.7306 25.8512 10.9452 25.6366C11.1598 25.422 11.2803 25.131 11.2803 24.8275V13.3852C11.2803 13.0817 11.1598 12.7907 10.9452 12.5761C10.7306 12.3615 10.4396 12.241 10.1361 12.241Z" fill="white"/>
</svg>
